<svg  viewBox="0 0 172 172" fill="none" xmlns="http://www.w3.org/2000/svg">
<g clip-path="url(#clip0_4_8)">
<path d="M86.0515 0.619446C38.7551 0.619446 0.412216 39.0314 0.412216 86.413C0.412216 133.795 38.7551 172.206 86.0515 172.206C133.348 172.206 171.691 133.795 171.691 86.413C171.691 39.0314 133.348 0.619446 86.0515 0.619446ZM141.677 131.288C137.695 136.237 133.07 140.641 127.925 144.375C118.551 151.184 107.462 155.766 95.4296 157.348C92.3606 157.751 89.2298 157.959 86.0515 157.959C82.8733 157.959 79.6023 157.742 76.4673 157.319C63.1402 155.529 50.9755 150.057 41.0306 141.953C36.1066 137.947 31.7267 133.293 28.0208 128.122C21.3573 118.837 16.8599 107.887 15.2729 96.0144C14.8503 92.8738 14.6339 89.6692 14.6339 86.413C14.6339 83.1567 14.8421 80.0925 15.244 77.018C16.8228 64.9635 21.3964 53.8548 28.194 44.464C31.9205 39.3102 36.3168 34.6767 41.2573 30.6874C51.161 22.6862 63.2412 17.2826 76.4673 15.5068C79.6023 15.0836 82.8011 14.8667 86.0515 14.8667C89.3019 14.8667 92.3606 15.0753 95.4296 15.4779C107.359 17.0451 118.364 21.563 127.686 28.2778C132.847 31.9903 137.493 36.3781 141.491 41.311C149.622 51.3254 155.101 63.5863 156.859 77.018C157.261 80.0925 157.469 83.229 157.469 86.413C157.469 89.5969 157.253 92.8738 156.83 96.0144C155.058 109.264 149.664 121.366 141.677 131.288Z" fill="black"/>
<path d="M157.469 86.413C157.469 89.6692 157.253 92.8738 156.83 96.0144C155.058 109.264 149.664 121.366 141.677 131.288C137.695 136.237 133.07 140.641 127.925 144.375C118.551 151.184 107.462 155.766 95.4296 157.348C92.3606 157.751 89.2298 157.959 86.0515 157.959C82.8733 157.959 79.6023 157.742 76.4673 157.319C63.1402 155.529 50.9755 150.057 41.0306 141.953C36.1066 137.947 31.7267 133.293 28.0208 128.122C21.3573 118.837 16.8599 107.887 15.2729 96.0144C14.8503 92.8738 14.6339 89.6692 14.6339 86.413C14.6339 83.1567 14.8421 80.0925 15.244 77.018C16.8228 64.9636 21.3964 53.8548 28.194 44.464C31.9205 39.3102 36.3168 34.6767 41.2573 30.6874C51.161 22.6862 63.2412 17.2826 76.4673 15.5068C79.6023 15.0836 82.8011 14.8667 86.0515 14.8667C89.3019 14.8667 92.3606 15.0753 95.4296 15.4779C107.359 17.0451 118.364 21.563 127.686 28.2778C132.847 31.9903 137.493 36.3781 141.491 41.311C149.622 51.3254 155.101 63.5863 156.859 77.018C157.261 80.0925 157.469 83.229 157.469 86.413Z" fill="black"/>
<path d="M171.693 87.0159C171.693 89.7745 171.489 92.5001 171.089 95.1885H157.444C158.065 92.0479 158.384 88.8433 158.384 85.587C158.384 82.3308 158.079 79.2666 157.488 76.1921H170.631C171.283 79.4917 171.641 82.8532 171.689 86.2684C171.689 86.5162 171.691 86.7661 171.691 87.0159H171.693Z" fill="#E1B56F"/>
<path d="M113.509 78.7737C111.323 85.2464 109.136 91.72 106.95 98.1927H122.406C122.926 96.8068 123.446 95.4218 123.965 94.0359C121.844 93.9934 119.721 93.9491 117.6 93.9057C118.856 90.1387 120.11 86.3718 121.367 82.6049H142.539C140.374 88.7528 138.21 94.9017 136.045 101.05C135.727 102.006 135.18 103.358 134.227 104.817C132.802 106.996 131.212 108.275 130.329 108.973C128.673 110.284 127.215 111 126.303 111.441C124.704 112.216 123.262 112.694 122.146 113H97.4663C96.7665 112.974 95.4301 112.822 94.0893 111.961C92.6696 111.049 92.0192 109.841 91.6215 109.103C91.4408 108.768 90.7652 107.463 90.582 105.595C90.4405 104.15 90.6506 102.963 90.8416 102.218C94.566 92.0864 98.2887 81.9553 102.012 71.8233C102.243 71.3709 102.484 70.9611 102.729 70.5903C102.729 70.5903 102.729 70.5894 102.727 70.5894C103.488 69.4206 104.988 67.4642 107.533 65.9133C111.012 63.7919 114.403 63.6712 115.846 63.7051C115.845 63.7137 115.843 63.7216 115.843 63.7302C127.015 63.7216 138.186 63.7137 149.359 63.7051C147.453 68.7276 145.549 73.7494 143.643 78.7728H113.508H113.509V78.7737Z" fill="#E1B56F"/>
<path d="M82.9847 68.3821C81.7803 65.2438 77.5592 64.4519 76.36 64.2252C75.5663 64.0759 74.8829 64.0359 74.3819 64.0307H39.9255C33.9503 80.3541 27.9752 96.6766 22 113H58.4996L59.4739 112.935C60.7278 112.841 62.7668 112.523 64.9385 111.349C66.4477 110.533 67.4064 109.616 68.0464 109.038C69.0736 108.11 70.7452 106.355 72.0078 103.518C72.0078 103.518 72.0078 103.518 72.0087 103.516C72.0946 103.388 72.1815 103.259 72.2674 103.128C73.3069 100.357 74.3454 97.5849 75.3848 94.8149C75.641 94.2443 75.9189 93.3916 75.9041 92.347C75.8902 91.338 75.6089 90.5912 75.3848 90.0085C75.0253 89.0794 74.5651 88.3847 74.216 87.9305C74.7171 87.8593 75.4595 87.6839 76.2298 87.2159C77.8119 86.2546 78.3981 84.735 78.5683 84.2287C79.2933 82.4347 80.0097 80.5721 80.7113 78.6434C81.3635 76.852 81.9687 75.0971 82.5297 73.3829C82.5462 73.3048 82.5618 73.2284 82.5748 73.1528C82.9699 72.3122 83.735 70.3393 82.9838 68.3821H82.9847ZM59.4097 98.0625C53.6516 98.02 47.8918 97.9757 42.1337 97.9323C42.6104 96.5906 43.0854 95.2473 43.5622 93.9057C49.4071 93.9482 55.2529 93.9925 61.0978 94.0359C60.5351 95.3776 59.9715 96.7209 59.4088 98.0625H59.4097ZM64.995 82.7351C59.1926 82.7777 53.392 82.822 47.5896 82.8654C48.1089 81.3935 48.629 79.9208 49.1483 78.4489C54.9507 78.4915 60.7513 78.5358 66.5537 78.5792C66.0344 79.9651 65.5142 81.3501 64.995 82.736V82.7351Z" fill="#E1B56F"/>
<path d="M104.676 43.053C104.508 42.5893 104.202 41.958 103.637 41.364C103.316 41.0262 102.599 40.2933 101.429 40.065C101.261 40.0328 100.708 39.9364 100 40.065C98.8531 40.2725 98.1037 40.9246 97.792 41.2338C97.3413 42.7742 96.8654 44.3347 96.3635 45.9099C94.9169 50.4496 93.3642 54.7584 91.7526 58.8345C91.6223 59.1375 91.4929 59.4415 91.3627 59.7437C90.7765 59.7853 90.1912 59.8279 89.6051 59.8696C89.5843 59.8696 89.5652 59.8722 89.5443 59.873C89.5365 59.8574 89.5287 59.8409 89.52 59.8235C89.4827 59.7506 89.4358 59.6646 89.382 59.5717C89.3637 59.5405 89.3446 59.5083 89.3246 59.4753C89.3116 59.4536 89.2977 59.431 89.2829 59.4093C89.2673 59.3833 89.2508 59.3572 89.2326 59.3312C89.2135 59.2999 89.1926 59.2704 89.1701 59.2391C89.1466 59.2044 89.1206 59.1679 89.0937 59.1315C88.8705 58.831 88.3269 58.1806 87.4012 57.7299C86.71 57.3948 86.1169 57.3166 85.7774 57.2749C85.0436 57.1863 84.4306 57.261 84.0242 57.34C83.0343 57.5519 82.7407 58.0287 82.66 58.1841C82.1025 59.2556 83.2948 61.0679 84.5539 61.6402C84.8135 61.7582 85.1609 61.8972 85.5829 62.0153C85.932 62.1125 86.5155 62.2723 87.2718 62.2749C87.8927 62.2775 88.4893 62.1733 88.9591 62.0917C88.986 62.0865 89.0094 62.083 89.025 62.0804C89.2421 62.3835 89.4575 62.6874 89.6746 62.9896C89.3576 63.8588 89.0424 64.7298 88.7263 65.599C89.4723 65.9159 89.9316 66.5099 89.7562 66.9354C89.5782 67.367 88.8175 67.4616 88.0534 67.1473C88.0455 67.1447 88.0395 67.1412 88.0317 67.1386C87.9066 67.5137 87.7807 67.8897 87.6574 68.2648C87.7017 68.2787 87.7442 68.2961 87.7885 68.3143C88.5509 68.6287 89.025 69.2331 88.847 69.6638C88.669 70.0953 87.9083 70.19 87.1442 69.8756C87.1355 69.8722 87.1251 69.8678 87.1155 69.8626C86.9948 70.1961 86.8724 70.5304 86.7517 70.8638C86.7942 70.8777 86.8359 70.8951 86.8793 70.9116C87.6418 71.2259 88.1159 71.8303 87.9379 72.261C87.9292 72.2819 87.9196 72.3027 87.9084 72.3209C87.9031 72.3756 87.8866 72.426 87.8562 72.472C87.7416 72.6422 87.482 72.6665 87.2675 72.6509H87.2649C86.9644 72.6796 86.5997 72.624 86.235 72.4729C86.2263 72.4694 86.2159 72.4651 86.2064 72.4599C86.0805 72.8081 85.9528 73.1563 85.8269 73.5045C85.8304 73.5054 85.8356 73.508 85.8399 73.5097C85.8608 73.5184 85.8816 73.528 85.9024 73.5366C86.0648 73.5358 86.2376 73.5601 86.4113 73.6122C86.9427 73.7711 87.4707 74.352 87.3482 74.7775C87.1893 75.3281 86.0379 75.2725 85.8608 75.2438C85.6966 75.2169 85.5829 75.1353 85.5829 75.1353C85.5195 75.0893 85.4778 75.0389 85.4526 75.005C85.3745 75.2256 85.2946 75.4479 85.2112 75.6711C85.153 75.83 85.094 75.9871 85.035 76.1426C85.1452 76.153 85.2581 76.1747 85.3727 76.2103C86.0249 76.4074 86.4443 76.9284 86.3097 77.3756C86.1786 77.8107 85.569 78.013 84.9351 77.8411H84.9325C84.7996 77.8255 84.6633 77.7959 84.5235 77.7542C84.4089 78.0391 84.2256 78.495 84.1275 78.7416C84.2378 78.752 84.3507 78.7737 84.4636 78.8093C85.1157 79.0064 85.5351 79.5274 85.4005 79.9746C85.3085 80.2803 84.9794 80.4705 84.573 80.4965C84.5417 80.5095 84.5105 80.5182 84.4792 80.526C84.3116 80.566 84.0832 80.5582 83.7776 80.3949C83.7776 80.3949 83.7767 80.3958 83.775 80.3941C83.7038 80.3784 83.6308 80.3593 83.557 80.3341C83.4806 80.7136 83.4051 81.0931 83.3286 81.4717C83.3417 81.4769 83.3521 81.483 83.3634 81.4899C83.366 81.4899 83.3668 81.4908 83.3686 81.4908C83.4311 81.5021 83.4919 81.5168 83.5544 81.5359C84.2065 81.7331 84.626 82.2541 84.4914 82.7013C84.3559 83.1485 83.7185 83.3491 83.0664 83.152C83.0247 83.1389 82.983 83.125 82.9431 83.1094C82.9422 83.1094 82.9396 83.1094 82.9379 83.1077C82.8675 83.0894 82.7963 83.0686 82.7251 83.0425C82.6383 83.2839 82.4559 83.7841 82.35 84.0742C82.4308 84.0985 82.5124 84.1271 82.594 84.161C83.3564 84.4753 83.8305 85.0797 83.6525 85.5104C83.4745 85.942 82.7138 86.0366 81.9497 85.7223C81.9158 85.7084 81.8837 85.6936 81.8507 85.678C81.4973 86.681 81.0457 88.0929 80.648 89.8123C80.1826 91.8242 79.9907 93.3638 79.8682 94.4884C79.1631 100.956 78.8106 104.19 78.6994 105.269C78.5136 107.06 78.2227 109.699 77.7903 112.932C79.8048 110.572 81.6223 108.4 83.2461 106.438C83.8739 105.679 84.7493 104.614 85.714 103.061C86.3618 102.016 86.8325 101.107 87.1425 100.463C90.9094 88.9448 94.6763 77.4286 98.4432 65.9116C100.089 66.3883 101.733 66.8633 103.379 67.34C103.682 66.5603 103.986 65.7813 104.288 65.0016C102.34 64.0056 100.391 63.0104 98.4432 62.0144C100.521 55.6928 102.6 49.372 104.678 43.0504L104.676 43.053ZM88.8531 60.8143C88.6326 61.4109 87.3361 61.4804 85.9563 60.9698C84.5765 60.4609 83.6378 59.563 83.8575 58.9665C84.078 58.3717 85.3745 58.3013 86.7543 58.811C88.1341 59.3216 89.0745 60.2178 88.8531 60.8143ZM85.1409 92.9974L84.6346 94.9599C84.4662 95.6172 83.7889 96.0158 83.1315 95.8473C82.4742 95.6771 82.0756 95.0016 82.2441 94.3442L82.7503 92.3817C82.9188 91.7244 83.5961 91.3258 84.2534 91.4943C84.8083 91.6375 85.18 92.1421 85.18 92.6917C85.18 92.7916 85.1669 92.8941 85.1409 92.9974Z" fill="#E1B56F"/>
<path d="M95.4296 2.00908V15.2591C92.3606 14.6644 89.2298 14.3547 86.0515 14.3547C82.8733 14.3547 79.6023 14.6747 76.4673 15.3004V2.03798C79.6044 1.48461 82.797 1.20173 86.035 1.20173C89.2731 1.20173 92.3482 1.47429 95.4296 2.00701V2.00908Z" fill="#E1B56F"/>
<path d="M95.4296 157.156V171.042L76.4673 171.011V157.113C79.6023 157.742 82.8012 158.064 86.0515 158.064C89.3019 158.064 92.3606 157.755 95.4296 157.156Z" fill="#E1B56F"/>
<path d="M42.8238 144.393L32.5038 152.052C25.9391 146.08 20.1536 139.438 15.277 132.271L25.6361 124.583C30.3808 131.831 36.1684 138.496 42.8238 144.393Z" fill="#E1B56F"/>
<path d="M154.215 34.5776L151.038 37.363L144.709 42.9174C139.131 36.0106 132.589 29.814 125.27 24.5095L134.813 16.1366C142.027 21.5527 148.542 27.7451 154.217 34.5776H154.215Z" fill="#E1B56F"/>
<path d="M15.2729 95.8079H1.5953C1.19544 93.1195 0.993454 90.394 0.993454 87.6353C0.993454 87.3855 0.995515 87.1357 0.995515 86.8879C1.04498 83.4726 1.40155 80.1111 2.05287 76.8115H15.2316C14.6422 79.886 14.335 83.0225 14.335 86.2065C14.335 89.3904 14.6525 92.6673 15.2729 95.8079Z" fill="#E1B56F"/>
<path d="M43.4957 28.7486C36.189 34.3732 29.6368 40.9661 24.0285 48.352L15.0667 38.6494C20.8152 31.3895 27.3819 24.8399 34.6226 19.143L37.5906 22.3579L43.4936 28.7486H43.4957Z" fill="#E1B56F"/>
<path d="M154.171 136.654C148.685 143.291 142.423 149.266 135.524 154.449L126.552 145.523C133.56 140.47 139.861 134.511 145.288 127.813L154.171 136.654Z" fill="#E1B56F"/>
<path d="M86.0515 1.65186C97.4454 1.65186 108.499 3.88807 118.904 8.29647C128.954 12.5541 137.981 18.6516 145.733 26.4174C153.485 34.1832 159.571 43.2251 163.821 53.2952C168.222 63.7185 170.454 74.7921 170.454 86.2065C170.454 97.6208 168.222 108.695 163.821 119.118C159.571 129.186 153.485 138.23 145.733 145.996C137.981 153.761 128.956 159.859 118.904 164.116C108.499 168.525 97.4454 170.761 86.0515 170.761C74.6577 170.761 63.6039 168.525 53.1994 164.116C43.1494 159.859 34.1217 153.761 26.3699 145.996C18.618 138.23 12.5316 129.188 8.28155 119.118C3.88107 108.695 1.64888 97.6208 1.64888 86.2065C1.64888 74.7921 3.88107 63.7185 8.28155 53.2952C12.5316 43.2271 18.618 34.1832 26.3699 26.4174C34.1217 18.6516 43.1474 12.5541 53.1994 8.29647C63.6039 3.88807 74.6577 1.65186 86.0515 1.65186ZM86.0515 158.992C89.2359 158.992 92.4451 158.783 95.5904 158.37C107.485 156.807 118.918 152.242 128.651 145.172C133.878 141.379 138.585 136.9 142.639 131.86C150.968 121.513 156.298 109.103 158.057 95.9731C158.487 92.7664 158.706 89.4813 158.706 86.2065C158.706 82.9317 158.498 79.8014 158.085 76.6505C156.342 63.3344 150.935 50.7741 142.452 40.324C138.381 35.3003 133.655 30.8402 128.407 27.0657C123.628 23.6237 118.442 20.7721 112.994 18.5917C107.415 16.3575 101.559 14.8275 95.5904 14.0449C92.4451 13.632 89.2359 13.4234 86.0515 13.4234C82.8671 13.4234 79.5034 13.6423 76.3025 14.0739C63.1958 15.8331 50.8085 21.1748 40.4803 29.5188C35.4491 33.5823 30.9785 38.2963 27.1923 43.5327C20.133 53.2849 15.5779 64.7364 14.0176 76.6525C13.6054 79.8014 13.3972 83.0163 13.3972 86.2085C13.3972 89.4008 13.6157 92.7706 14.0465 95.9752C14.84 101.916 16.3714 107.745 18.5954 113.297C20.7678 118.719 23.5998 123.881 27.0171 128.643C30.7848 133.9 35.2368 138.632 40.2515 142.71C50.623 151.162 63.0907 156.57 76.3045 158.343C79.5054 158.775 82.7847 158.994 86.0536 158.994M86.0536 0.415029C38.7551 0.412964 0.412216 38.8249 0.412216 86.2065C0.412216 133.588 38.7551 172 86.0515 172C133.348 172 171.691 133.588 171.691 86.2065C171.691 38.8249 133.348 0.412964 86.0515 0.412964L86.0536 0.415029ZM86.0536 157.755C82.8032 157.755 79.6044 157.538 76.4694 157.115C63.1422 155.324 50.9775 149.853 41.0327 141.748C36.1087 137.742 31.7288 133.088 28.0229 127.918C21.3593 118.633 16.862 107.683 15.2749 95.81C14.8524 92.6694 14.636 89.4648 14.636 86.2085C14.636 82.9523 14.8441 79.8881 15.2461 76.8136C16.8249 64.7591 21.3985 53.6504 28.196 44.2595C31.9225 39.1057 36.3189 34.4723 41.2594 30.483C51.163 22.4818 63.2432 17.0782 76.4694 15.3024C79.6044 14.8791 82.8032 14.6623 86.0536 14.6623C89.304 14.6623 92.3627 14.8709 95.4317 15.2735C107.361 16.8407 118.366 21.3586 127.688 28.0734C132.849 31.7859 137.495 36.1737 141.493 41.1066C149.625 51.121 155.103 63.3819 156.861 76.8136C157.263 79.8881 157.471 83.0246 157.471 86.2085C157.471 89.3925 157.255 92.6694 156.832 95.81C155.06 109.06 149.666 121.162 141.679 131.083C137.697 136.033 133.072 140.437 127.927 144.17C118.553 150.98 107.464 155.562 95.4317 157.144C92.3627 157.546 89.2318 157.755 86.0536 157.755Z" fill="#E1B56F"/>
</g>
<defs>
<clipPath id="clip0_4_8">
<rect width="172" height="172" fill="white"/>
</clipPath>
</defs>
</svg>
