<?xml version="1.0" encoding="utf-8"?>
<!-- Generator: Adobe Illustrator 27.9.5, SVG Export Plug-In . SVG Version: 9.03 Build 54986)  -->
<svg version="1.1" id="Layer_1" xmlns="http://www.w3.org/2000/svg" xmlns:xlink="http://www.w3.org/1999/xlink" x="0px" y="0px"
	 viewBox="0 0 56 45" style="enable-background:new 0 0 56 45;" xml:space="preserve">
<style type="text/css">
	.st0{fill:#FF822E;}
	.st1{fill:#FFA669;}
	.st2{fill:#E27023;}
	.st3{fill:#FFC9A4;}
</style>
<path class="st0" d="M0,14.1h56c0,10.5-9.1,19-20.2,19H20.2C9.1,33.1,0,24.6,0,14.1z"/>
<path class="st0" d="M47.2,32.6V11.8L28,1.3L8.8,11.8v20.8L28,43L47.2,32.6z"/>
<path class="st1" d="M9.9,12.3L28,22.2l18.3-9.9L28,1.3L9.9,12.3z"/>
<path class="st2" d="M48.5,33.2V11.1l-3.9,2.1v17.9l-16.5,9l-16.5-9l-3.9,2.1L28,44.3L48.5,33.2z"/>
<path class="st1" d="M38.6,27.9V16.4L28,10.7l-10.6,5.7v11.5L28,33.6L38.6,27.9z"/>
<path class="st3" d="M17.4,16.4L28,22.2l10.6-5.7L28,10.7L17.4,16.4z"/>
<polygon class="st3" points="11.5,31.1 11.5,13.2 28,4.3 44.5,13.2 44.5,13.2 48.5,11.1 28,0 7.5,11.1 7.5,33.2 7.5,33.2 "/>
</svg>
