<svg width="909" height="190" viewBox="0 0 909 190" fill="none" xmlns="http://www.w3.org/2000/svg">
<path d="M60.3989 120.108C60.3989 120.108 80.7714 97.2921 100.029 119.727C102.006 117.387 104.284 115.335 106.801 113.627C108.878 121.317 114.587 127.418 121.99 129.858C129.393 132.298 137.495 130.75 143.546 125.739C149.832 134.185 162.118 147.881 168.376 135.476C177.313 117.691 160.578 116.918 159.106 116.884L159.004 116.882C173.376 100.254 195.834 136.766 164.118 157.94C134.088 177.882 103.515 147.118 100.144 143.54C96.7721 147.118 66.1992 177.882 36.1977 157.94C4.36761 136.766 26.883 100.254 41.1694 116.882C41.1694 116.882 22.4542 116.882 31.8261 135.476C40.3979 152.573 60.3989 120.108 60.3989 120.108ZM122.288 14.4144C130.222 14.3912 137.838 17.6097 143.456 23.3595C149.074 29.1094 152.232 36.9178 152.232 45.0611V67.0268C152.236 69.5879 151.929 72.1395 151.318 74.6225H157.032C163.311 74.6223 168.414 79.8209 168.461 86.2652V86.7638C168.461 93.2425 163.344 98.4945 157.032 98.4945H150.546C147.036 89.5062 138.551 83.6142 129.117 83.6142C119.682 83.6142 111.197 89.5062 107.687 98.4945H41.8837C35.5716 98.4945 30.4546 93.2425 30.4546 86.7638V86.3532C30.4546 79.8745 35.5716 74.6225 41.8837 74.6225H47.5983C46.987 72.1395 46.6798 69.5879 46.684 67.0268V45.0611C46.684 36.928 49.8337 29.1285 55.4395 23.3803C61.0452 17.6322 68.6472 14.4068 76.5712 14.4144H122.288Z" fill="white"/>
<path d="M316.795 52.752C335.419 52.752 342.228 62.9655 342.228 76.7838C342.228 77.1843 342.228 78.1857 342.228 78.5862L387.689 78.3859C388.289 75.9827 388.69 73.179 388.69 69.374C388.69 48.5464 378.476 17.9058 318.597 17.9058C271.935 17.9058 241.695 41.9377 241.695 89.4005C241.695 136.263 271.935 160.094 318.597 160.094C356.047 160.094 388.49 145.275 388.49 107.825C388.49 104.821 388.089 102.017 387.689 99.6141L342.228 99.4138C342.228 99.8143 342.228 100.615 342.228 101.016C342.228 112.832 335.82 125.248 316.795 125.248C299.372 125.248 288.357 111.229 288.357 89.4005C288.357 66.7705 299.572 52.752 316.795 52.752Z" fill="white"/>
<path d="M408.1 158.092H452.158V106.223H503.026V158.092H547.485V19.9085H503.026V71.7772H452.158V19.9085H408.1V158.092Z" fill="white"/>
<path d="M574.336 158.092H618.394V19.9085H574.336V158.092Z" fill="white"/>
<path d="M645.133 158.092H689.592V123.045H711.22C753.476 123.045 768.096 98.2122 768.096 70.9761C768.096 42.5385 753.476 19.9085 711.22 19.9085H645.133V158.092ZM689.792 90.0013V52.9522H703.41C716.627 52.9522 722.035 58.7599 722.035 71.3766C722.035 84.5942 716.627 90.0013 703.41 90.0013H689.792Z" fill="white"/>
<path d="M777.361 112.431C776.96 114.233 776.961 116.236 776.961 118.239C776.961 133.259 785.572 160.094 841.045 160.094C882.5 160.094 906.732 144.874 906.732 116.036C906.732 91.8037 890.311 82.5915 868.682 76.3833L837.841 67.5716C829.831 65.1684 826.226 62.3647 826.226 57.7586C826.226 51.9509 831.032 47.9456 840.845 47.9456C852.661 47.9456 857.667 52.752 857.667 60.3621C857.667 61.3634 857.667 61.7639 857.467 63.1658L901.125 62.9655C901.525 61.1631 901.726 58.7599 901.726 56.557C901.726 42.1379 892.514 17.9058 841.846 17.9058C801.193 17.9058 780.165 33.927 780.165 60.9629C780.165 84.3939 795.385 95.0079 818.015 101.416L846.252 109.427C855.665 112.03 859.269 115.034 859.269 120.041C859.269 126.049 853.662 130.255 843.449 130.255C829.63 130.255 822.421 123.245 822.421 114.634C822.421 113.432 822.421 113.633 822.421 112.231L777.361 112.431Z" fill="white"/>
</svg>
