<svg width="500" height="500" viewBox="0 0 500 500" fill="none" xmlns="http://www.w3.org/2000/svg">
<path d="M250.003 500C382.142 500 489.261 388.072 489.261 250C489.261 111.928 382.142 0 250.003 0C117.865 0 10.7456 111.928 10.7456 250C10.7456 388.072 117.865 500 250.003 500Z" fill="#E88102"/>
<path d="M250 473.633C380.79 473.633 486.817 367.606 486.817 236.817C486.817 106.027 380.79 0 250 0C119.21 0 13.1836 106.027 13.1836 236.817C13.1836 367.606 119.21 473.633 250 473.633Z" fill="#FDD835"/>
<path d="M250 424.804C352.474 424.804 435.547 341.733 435.547 239.257C435.547 136.783 352.474 53.7109 250 53.7109C147.526 53.7109 64.4531 136.783 64.4531 239.257C64.4531 341.733 147.526 424.804 250 424.804Z" fill="#F39E09"/>
<path d="M401.167 224.408C401.167 316.095 326.839 390.424 235.151 390.424C194.278 390.424 156.857 375.654 127.93 351.16C158.384 387.124 203.867 409.955 254.682 409.955C346.37 409.955 420.698 335.626 420.698 243.94C420.698 193.124 397.867 147.641 361.903 117.188C386.397 146.114 401.167 183.536 401.167 224.408Z" fill="#DB8B01"/>
<path d="M390.625 118.164C358.105 90.1362 315.82 73.2422 269.531 73.2422C167.09 73.2422 83.9844 156.348 83.9844 258.789C83.9844 305.078 100.879 347.364 128.906 379.883C89.4531 345.801 64.4531 295.508 64.4531 239.257C64.4531 136.817 147.558 53.7109 250 53.7109C306.152 53.7109 356.543 78.7109 390.625 118.164Z" fill="#E88102"/>
<path fill-rule="evenodd" clip-rule="evenodd" d="M249.84 138.002C249.823 138.002 249.809 138.002 249.8 138.003C249.11 137.991 225.149 137.675 207.358 149.782L199.447 147.612L197.08 150.222C195.736 149.162 194.423 147.286 193.491 145.932C192.911 145.083 192.437 144.398 191.964 143.892C190.727 142.571 188.848 142.212 187.291 142.995C175.668 148.786 174.95 160.092 174.905 161.365C174.874 162.392 175.241 163.404 175.897 164.154C176.569 164.905 177.47 165.329 178.448 165.345C180.968 165.394 183.518 166.406 185.259 167.27L183.961 169.146L186.619 177.189C184.272 184.94 179.373 204.045 179.587 227.476C181.825 217.523 186.135 199.393 200.692 180.753C204.055 176.834 207.815 173.552 211.928 170.89L212.305 170.675C208.171 166.18 204.766 163.349 202.702 162.357C202.263 163.334 201.659 164.39 200.837 165.508C196.21 171.805 190.208 171.903 189.963 171.903H189.719L189.077 169.946L189.52 169.293L191.429 169.946L192.178 169.652L192.19 169.647C192.691 169.439 201.013 165.979 201.814 157.319L201.891 156.568L200.379 153.632L200.898 153.044L202.548 153.501L203.403 155.279H203.388L203.389 155.283L203.392 155.29C203.427 155.379 203.671 155.994 203.753 157.027C208.071 159.465 212.237 163.589 216.081 168.515L216.238 168.425C222.858 165.061 230.302 163.15 238.557 162.758L240.101 162.693L249.792 185.55L249.84 185.438V138.002ZM189.832 148.844C191.222 150.851 193.251 153.781 195.935 155.149H195.95L197.187 157.547C196.454 161.642 192.804 163.942 191.277 164.742L189.658 164.187C188.558 163.485 184.297 160.924 179.609 160.5C179.944 157.906 181.548 151.429 188.94 147.579C189.105 147.789 189.305 148.081 189.517 148.389L189.519 148.392C189.62 148.539 189.723 148.689 189.826 148.835L189.832 148.844Z" fill="#DB6704"/>
<path d="M235.362 276.782C233.833 276.782 232.595 275.459 232.595 273.826C232.595 272.193 233.833 270.87 235.362 270.87C236.891 270.87 238.129 272.193 238.129 273.826C238.129 275.459 236.891 276.782 235.362 276.782Z" fill="#DB6704"/>
<path d="M235.362 295.302C233.833 295.302 232.595 293.979 232.595 292.346C232.595 290.713 233.833 289.39 235.362 289.39C236.891 289.39 238.129 290.713 238.129 292.346C238.129 293.979 236.891 295.302 235.362 295.302Z" fill="#DB6704"/>
<path d="M232.595 313.12C232.595 314.753 233.833 316.076 235.362 316.076C236.891 316.076 238.129 314.753 238.129 313.12C238.129 311.487 236.891 310.164 235.362 310.164C233.833 310.164 232.595 311.487 232.595 313.12Z" fill="#DB6704"/>
<path d="M218.881 302.521C217.352 302.521 216.114 301.198 216.114 299.564C216.114 297.931 217.352 296.608 218.881 296.608C220.41 296.608 221.648 297.931 221.648 299.564C221.648 301.198 220.41 302.521 218.881 302.521Z" fill="#DB6704"/>
<path d="M216.114 273.826C216.114 275.459 217.352 276.782 218.881 276.782C220.41 276.782 221.648 275.459 221.648 273.826C221.648 272.193 220.41 270.87 218.881 270.87C217.352 270.87 216.114 272.193 216.114 273.826Z" fill="#DB6704"/>
<path d="M206.955 287.512C205.427 287.512 204.188 286.189 204.188 284.556C204.188 282.922 205.427 281.6 206.955 281.6C208.484 281.6 209.723 282.922 209.723 284.556C209.723 286.189 208.484 287.512 206.955 287.512Z" fill="#DB6704"/>
<path d="M197.201 231.624C195.428 234.564 195.153 236.998 196.345 239.072C197.996 241.93 202.201 243.987 207.215 245.147C203.179 243.628 199.036 240.999 199.158 236.508C199.311 230.873 202.552 228.717 204.846 227.836C199.907 227.705 197.4 231.331 197.201 231.624Z" fill="#DB6704"/>
<path fill-rule="evenodd" clip-rule="evenodd" d="M249.84 197.273L249.796 197.376L237.227 167.755C230.608 168.229 224.57 169.796 219.143 172.393L218.991 172.475C226.707 183.592 232.801 197.249 235.688 205.202C228.953 192.136 221.693 181.698 215.531 174.353L215.321 174.466C211.163 176.981 207.403 180.182 204.085 184.068C197.463 192.388 183.471 215.861 180.607 243.771C180.615 243.84 180.624 243.909 180.632 243.978L175.195 249.183L175.378 250.488C175.393 250.602 175.47 251.157 175.607 252.021H175.577C171.957 254.468 163.954 260.537 164 266.329C164.061 272.805 172.064 280.391 174.706 281.452C175.134 281.631 175.531 281.696 175.867 281.696C176.936 281.696 177.562 281.044 177.776 280.799C178.185 280.297 178.429 279.716 178.686 279.101L178.692 279.086C179.135 278.009 179.761 276.509 181.563 274.959C181.93 275.742 182.296 276.46 182.694 277.096L183.259 278.009L189.887 279.07C197.889 297.668 211.604 316.233 234.558 331.079L234.696 331.16C235.042 331.353 242.682 335.505 249.495 336.205L249.756 336.23L249.8 336.234L249.808 336.233L249.824 336.232L249.84 336.23V197.273ZM249.785 237.299L249.81 237.19L249.785 237.167L249.785 237.299ZM186.038 273.507L187.81 273.784C184.755 265.611 182.724 257.503 181.456 249.754L180.097 251.059C180.723 255.072 182.831 267.422 186.038 273.507ZM175.042 275.97C175.775 274.42 177.073 272.332 179.777 270.342C178.341 266.035 177.257 261.124 176.508 257.258C172.324 260.341 168.597 264.159 168.612 266.296C168.643 269.249 172.66 273.947 175.027 275.97H175.042ZM234.781 269.629C232.35 269.629 230.363 271.736 230.363 274.332C230.363 276.929 232.335 279.052 234.781 279.052C237.227 279.052 239.184 276.946 239.184 274.332C239.184 271.719 237.212 269.629 234.781 269.629ZM234.781 288.149C232.35 288.149 230.363 290.256 230.363 292.852C230.363 295.449 232.335 297.572 234.781 297.572C237.227 297.572 239.184 295.465 239.184 292.852C239.184 290.239 237.212 288.149 234.781 288.149ZM230.363 313.626C230.363 311.03 232.35 308.923 234.781 308.923C237.212 308.923 239.184 311.013 239.184 313.626C239.184 316.239 237.227 318.346 234.781 318.346C232.335 318.346 230.363 316.223 230.363 313.626ZM218.315 295.367C215.884 295.367 213.897 297.474 213.897 300.071C213.897 302.667 215.869 304.791 218.315 304.791C220.761 304.791 222.718 302.684 222.718 300.071C222.718 297.458 220.746 295.367 218.315 295.367ZM213.897 274.332C213.897 271.736 215.884 269.629 218.315 269.629C220.746 269.629 222.718 271.719 222.718 274.332C222.718 276.946 220.761 279.052 218.315 279.052C215.869 279.052 213.897 276.929 213.897 274.332ZM206.39 280.358C203.959 280.358 201.971 282.465 201.971 285.062C201.971 287.659 203.944 289.782 206.39 289.782C208.836 289.782 210.793 287.675 210.793 285.062C210.793 282.449 208.821 280.358 206.39 280.358ZM194.021 229.371C194.205 229.077 198.577 222.315 207.338 224.03V224.047C213.576 225.271 234.261 229.714 238.084 235.217C239.536 237.292 239.827 239.627 238.924 241.832C237.151 246.143 231.173 249.083 222.076 250.096C220.608 250.259 218.988 250.34 217.306 250.34C208.255 250.34 196.896 247.842 193.089 241.227C191.697 238.81 190.734 234.809 194.021 229.403V229.371Z" fill="#DB6704"/>
<path fill-rule="evenodd" clip-rule="evenodd" d="M249.84 138.002C249.857 138.002 249.871 138.002 249.88 138.003C250.57 137.991 274.531 137.675 292.322 149.782L300.233 147.612L302.6 150.222C303.944 149.162 305.257 147.286 306.189 145.932C306.769 145.083 307.243 144.398 307.716 143.892C308.953 142.571 310.832 142.212 312.389 142.995C324.012 148.786 324.73 160.092 324.775 161.365C324.806 162.392 324.439 163.404 323.783 164.154C323.111 164.905 322.21 165.329 321.232 165.345C318.712 165.394 316.162 166.406 314.421 167.27L315.719 169.146L313.061 177.189C315.408 184.94 320.307 204.045 320.093 227.476C317.855 217.523 313.545 199.393 298.988 180.753C295.625 176.834 291.865 173.552 287.752 170.89L287.375 170.675C291.509 166.18 294.914 163.349 296.978 162.357C297.417 163.334 298.021 164.39 298.843 165.508C303.47 171.805 309.472 171.903 309.717 171.903H309.961L310.603 169.946L310.16 169.293L308.251 169.946L307.502 169.652L307.49 169.647C306.989 169.439 298.667 165.979 297.866 157.319L297.789 156.568L299.301 153.632L298.782 153.044L297.132 153.501L296.277 155.279H296.292L296.291 155.283L296.288 155.29C296.253 155.379 296.009 155.994 295.927 157.027C291.609 159.465 287.443 163.589 283.599 168.515L283.442 168.425C276.822 165.061 269.378 163.15 261.123 162.758L259.579 162.693L249.888 185.55L249.84 185.438V138.002ZM309.848 148.844C308.458 150.851 306.429 153.781 303.745 155.149H303.73L302.493 157.547C303.226 161.642 306.876 163.942 308.403 164.742L310.022 164.187C311.122 163.485 315.383 160.924 320.071 160.5C319.736 157.906 318.132 151.429 310.74 147.579C310.575 147.789 310.375 148.081 310.163 148.389L310.161 148.392C310.06 148.539 309.957 148.689 309.854 148.835L309.848 148.844Z" fill="#DB6704"/>
<path d="M264.318 276.782C265.847 276.782 267.085 275.459 267.085 273.826C267.085 272.193 265.847 270.87 264.318 270.87C262.789 270.87 261.551 272.193 261.551 273.826C261.551 275.459 262.789 276.782 264.318 276.782Z" fill="#DB6704"/>
<path d="M264.318 295.302C265.847 295.302 267.085 293.979 267.085 292.346C267.085 290.713 265.847 289.39 264.318 289.39C262.789 289.39 261.551 290.713 261.551 292.346C261.551 293.979 262.789 295.302 264.318 295.302Z" fill="#DB6704"/>
<path d="M267.085 313.12C267.085 314.753 265.847 316.076 264.318 316.076C262.789 316.076 261.551 314.753 261.551 313.12C261.551 311.487 262.789 310.164 264.318 310.164C265.847 310.164 267.085 311.487 267.085 313.12Z" fill="#DB6704"/>
<path d="M280.799 302.521C282.328 302.521 283.566 301.198 283.566 299.564C283.566 297.931 282.328 296.608 280.799 296.608C279.27 296.608 278.032 297.931 278.032 299.564C278.032 301.198 279.27 302.521 280.799 302.521Z" fill="#DB6704"/>
<path d="M283.566 273.826C283.566 275.459 282.328 276.782 280.799 276.782C279.27 276.782 278.032 275.459 278.032 273.826C278.032 272.193 279.27 270.87 280.799 270.87C282.328 270.87 283.566 272.193 283.566 273.826Z" fill="#DB6704"/>
<path d="M292.725 287.512C294.253 287.512 295.492 286.189 295.492 284.556C295.492 282.922 294.253 281.6 292.725 281.6C291.196 281.6 289.957 282.922 289.957 284.556C289.957 286.189 291.196 287.512 292.725 287.512Z" fill="#DB6704"/>
<path d="M302.479 231.624C304.252 234.564 304.527 236.998 303.335 239.072C301.684 241.93 297.479 243.987 292.465 245.147C296.501 243.628 300.644 240.999 300.522 236.508C300.369 230.873 297.128 228.717 294.834 227.836C299.773 227.705 302.28 231.331 302.479 231.624Z" fill="#DB6704"/>
<path fill-rule="evenodd" clip-rule="evenodd" d="M249.84 197.273L249.884 197.376L262.453 167.755C269.072 168.229 275.11 169.796 280.537 172.393L280.689 172.475C272.973 183.592 266.879 197.249 263.992 205.202C270.727 192.136 277.987 181.698 284.149 174.353L284.359 174.466C288.517 176.981 292.277 180.182 295.594 184.068C302.217 192.388 316.209 215.861 319.073 243.771C319.065 243.84 319.056 243.909 319.048 243.978L324.485 249.183L324.302 250.488C324.287 250.602 324.21 251.157 324.073 252.021H324.103C327.723 254.468 335.726 260.537 335.68 266.329C335.619 272.805 327.616 280.391 324.974 281.452C324.546 281.631 324.149 281.696 323.813 281.696C322.744 281.696 322.118 281.044 321.904 280.799C321.495 280.297 321.251 279.716 320.994 279.101L320.988 279.086C320.545 278.009 319.919 276.509 318.117 274.959C317.75 275.742 317.384 276.46 316.986 277.096L316.421 278.009L309.793 279.07C301.791 297.668 288.076 316.233 265.122 331.079L264.984 331.16C264.638 331.353 256.998 335.505 250.185 336.205L249.924 336.23L249.88 336.234L249.872 336.233L249.856 336.232L249.84 336.23V197.273ZM249.895 237.299L249.87 237.19L249.895 237.167L249.895 237.299ZM313.642 273.507L311.87 273.784C314.925 265.611 316.956 257.503 318.224 249.754L319.583 251.059C318.957 255.072 316.849 267.422 313.642 273.507ZM324.638 275.97C323.905 274.42 322.607 272.332 319.903 270.342C321.339 266.035 322.423 261.124 323.172 257.258C327.356 260.341 331.083 264.159 331.068 266.296C331.037 269.249 327.02 273.947 324.653 275.97H324.638ZM264.899 269.629C267.33 269.629 269.317 271.736 269.317 274.332C269.317 276.929 267.345 279.052 264.899 279.052C262.453 279.052 260.496 276.946 260.496 274.332C260.496 271.719 262.468 269.629 264.899 269.629ZM264.899 288.149C267.33 288.149 269.317 290.256 269.317 292.852C269.317 295.449 267.345 297.572 264.899 297.572C262.453 297.572 260.496 295.465 260.496 292.852C260.496 290.239 262.468 288.149 264.899 288.149ZM269.317 313.626C269.317 311.03 267.33 308.923 264.899 308.923C262.468 308.923 260.496 311.013 260.496 313.626C260.496 316.239 262.453 318.346 264.899 318.346C267.345 318.346 269.317 316.223 269.317 313.626ZM281.365 295.367C283.796 295.367 285.783 297.474 285.783 300.071C285.783 302.667 283.811 304.791 281.365 304.791C278.919 304.791 276.962 302.684 276.962 300.071C276.962 297.458 278.934 295.367 281.365 295.367ZM285.783 274.332C285.783 271.736 283.796 269.629 281.365 269.629C278.934 269.629 276.962 271.719 276.962 274.332C276.962 276.946 278.919 279.052 281.365 279.052C283.811 279.052 285.783 276.929 285.783 274.332ZM293.29 280.358C295.721 280.358 297.709 282.465 297.709 285.062C297.709 287.659 295.736 289.782 293.29 289.782C290.844 289.782 288.887 287.675 288.887 285.062C288.887 282.449 290.859 280.358 293.29 280.358ZM305.659 229.371C305.475 229.077 301.103 222.315 292.342 224.03V224.047C286.104 225.271 265.419 229.714 261.596 235.217C260.144 237.292 259.853 239.627 260.756 241.832C262.529 246.143 268.507 249.083 277.604 250.096C279.072 250.259 280.692 250.34 282.374 250.34C291.425 250.34 302.785 247.842 306.591 241.227C307.983 238.81 308.946 234.809 305.659 229.403V229.371Z" fill="#DB6704"/>
</svg>
