<svg width="200" height="52" viewBox="0 0 200 52" fill="none" xmlns="http://www.w3.org/2000/svg">
<path d="M191.293 37.5329C189.381 37.5329 187.726 37.1498 186.327 36.3837C184.952 35.6176 183.891 34.538 183.145 33.145C182.399 31.7288 182.026 30.0688 182.026 28.165C182.026 26.2613 182.411 24.5897 183.18 23.1502C183.949 21.7108 185.022 20.5848 186.397 19.7722C187.796 18.9596 189.439 18.5533 191.328 18.5533C192.703 18.5533 193.915 18.7739 194.964 19.215C196.037 19.6561 196.946 20.283 197.692 21.0956C198.461 21.9081 199.033 22.8716 199.406 23.986C199.802 25.1004 200 26.3193 200 27.6426C199.977 27.9909 199.953 28.3391 199.93 28.6874C199.907 29.0124 199.849 29.3491 199.755 29.6973H187.516C187.586 30.2777 187.761 30.8117 188.041 31.2993C188.32 31.7868 188.717 32.1699 189.23 32.4485C189.742 32.7271 190.395 32.8664 191.188 32.8664C191.747 32.8664 192.249 32.8083 192.691 32.6923C193.158 32.553 193.542 32.3672 193.845 32.1351C194.149 31.8797 194.347 31.6011 194.44 31.2993H199.895C199.592 32.7619 199.009 33.9576 198.147 34.8862C197.284 35.7917 196.258 36.465 195.069 36.9061C193.88 37.324 192.622 37.5329 191.293 37.5329ZM187.621 25.9711H194.72C194.72 25.4835 194.591 25.0076 194.335 24.5432C194.102 24.0789 193.729 23.7074 193.216 23.4288C192.703 23.127 192.039 22.9761 191.223 22.9761C190.43 22.9761 189.766 23.127 189.23 23.4288C188.693 23.7306 188.297 24.1137 188.041 24.5781C187.784 25.0424 187.644 25.5067 187.621 25.9711Z" fill="url(#paint0_linear_6725_13850)"/>
<path d="M174.837 37.2543V12.5983H180.397V37.2543H174.837Z" fill="url(#paint1_linear_6725_13850)"/>
<path d="M170.702 37.2543C169.117 37.2543 167.776 37.0802 166.681 36.7319C165.585 36.3605 164.746 35.7336 164.163 34.8514C163.603 33.946 163.324 32.6806 163.324 31.0555V23.8119H160.666V18.9016H163.324V14.1654H168.884V18.9016H172.556V23.8119H168.884V30.2545C168.884 30.8581 168.989 31.3573 169.198 31.752C169.408 32.1235 169.945 32.3092 170.807 32.3092H172.381V37.2543H170.702Z" fill="url(#paint2_linear_6725_13850)"/>
<path d="M154.767 37.4981C152.646 37.4981 151.049 36.9061 149.976 35.7221C148.904 34.5148 148.368 32.8896 148.368 30.8466V23.8119H145.71V18.9016H148.368V14.1306H153.928V18.9016H159.488V23.8119H153.928V29.6277C153.928 30.1849 154.01 30.6608 154.173 31.0555C154.336 31.4502 154.592 31.7636 154.942 31.9958C155.315 32.2047 155.793 32.3092 156.376 32.3092C156.959 32.3092 157.437 32.228 157.81 32.0654C158.183 31.8797 158.497 31.6824 158.754 31.4734L160.327 35.7917C159.838 36.2096 159.255 36.5463 158.579 36.8016C157.926 37.057 157.273 37.2311 156.621 37.324C155.968 37.4401 155.35 37.4981 154.767 37.4981Z" fill="url(#paint3_linear_6725_13850)"/>
<path d="M134.096 37.5329C133.234 37.5329 132.418 37.4168 131.649 37.1846C130.879 36.9525 130.192 36.6042 129.585 36.1399C128.979 35.6756 128.501 35.0951 128.152 34.3986C127.802 33.7021 127.627 32.8896 127.627 31.9609C127.627 30.6376 127.895 29.5928 128.431 28.8267C128.991 28.0373 129.737 27.4569 130.67 27.0854C131.625 26.6907 132.709 26.4353 133.922 26.3193C135.134 26.2032 136.393 26.1451 137.698 26.1451H139.447C139.447 25.5647 139.33 25.0656 139.097 24.6477C138.887 24.2066 138.561 23.8583 138.118 23.6029C137.675 23.3475 137.127 23.2198 136.474 23.2198C136.008 23.2198 135.565 23.2895 135.146 23.4288C134.749 23.5449 134.411 23.719 134.131 23.9512C133.875 24.1601 133.7 24.4271 133.607 24.7521H128.047C128.21 23.661 128.548 22.7323 129.061 21.9662C129.597 21.1768 130.25 20.5383 131.019 20.0508C131.812 19.5632 132.698 19.2034 133.677 18.9712C134.656 18.7158 135.658 18.5881 136.684 18.5881C139.389 18.5881 141.405 19.3427 142.734 20.8518C144.063 22.3608 144.727 24.5432 144.727 27.3988V37.2543H139.657L139.622 34.8514C139.039 35.7336 138.374 36.3604 137.628 36.7319C136.882 37.1034 136.183 37.3239 135.53 37.3936C134.877 37.4865 134.4 37.5329 134.096 37.5329ZM135.495 33.2494C136.195 33.2494 136.847 33.0985 137.454 32.7967C138.06 32.4717 138.549 32.0654 138.922 31.5778C139.319 31.0671 139.517 30.5215 139.517 29.9411V29.6625H136.09C135.717 29.6625 135.344 29.6857 134.971 29.7321C134.621 29.7785 134.306 29.8714 134.027 30.0107C133.747 30.1268 133.525 30.3009 133.362 30.5331C133.199 30.7652 133.117 31.0671 133.117 31.4385C133.117 31.8332 133.222 32.1699 133.432 32.4484C133.642 32.7038 133.922 32.9012 134.271 33.0405C134.644 33.1798 135.052 33.2494 135.495 33.2494Z" fill="url(#paint4_linear_6725_13850)"/>
<path d="M106.246 37.2543V12.5983H117.82C118.916 12.5983 119.919 12.7143 120.828 12.9465C121.76 13.1555 122.565 13.5153 123.241 14.0261C123.94 14.5136 124.488 15.1753 124.884 16.0111C125.281 16.8237 125.479 17.8568 125.479 19.1105C125.479 20.0624 125.257 20.9679 124.814 21.8269C124.371 22.6859 123.742 23.3476 122.926 23.8119C124.022 24.2298 124.896 24.9147 125.549 25.8666C126.225 26.8184 126.563 28.0605 126.563 29.5928C126.563 31.0323 126.283 32.2395 125.723 33.2146C125.187 34.1897 124.441 34.9791 123.485 35.5827C122.553 36.1863 121.457 36.6158 120.198 36.8712C118.939 37.1266 117.599 37.2543 116.177 37.2543H106.246ZM111.911 32.0654H117.016C117.599 32.0654 118.123 32.019 118.59 31.9261C119.079 31.81 119.487 31.6591 119.814 31.4734C120.163 31.2644 120.42 30.9974 120.583 30.6724C120.769 30.3241 120.863 29.9295 120.863 29.4883C120.863 29.024 120.781 28.6409 120.618 28.3391C120.478 28.0373 120.257 27.7935 119.954 27.6078C119.65 27.3989 119.289 27.2596 118.869 27.1899C118.45 27.097 117.972 27.0506 117.436 27.0506H111.911V32.0654ZM111.911 22.4189H116.422C116.981 22.4189 117.471 22.3608 117.89 22.2448C118.333 22.1287 118.695 21.9662 118.974 21.7572C119.254 21.5251 119.464 21.2581 119.604 20.9562C119.767 20.6312 119.849 20.2597 119.849 19.8418C119.849 19.2846 119.709 18.8667 119.429 18.5882C119.173 18.2863 118.8 18.089 118.31 17.9961C117.844 17.88 117.296 17.822 116.666 17.822H111.911V22.4189Z" fill="url(#paint5_linear_6725_13850)"/>
<path d="M92.6039 37.5329C90.8321 37.5329 89.1885 37.2543 87.6732 36.6971C86.1579 36.1166 84.899 35.2228 83.8965 34.0155C82.9174 32.7851 82.3113 31.2179 82.0781 29.3142H87.8131C87.9996 30.0339 88.3376 30.6143 88.8272 31.0554C89.3401 31.4965 89.9579 31.8216 90.6805 32.0305C91.4032 32.2162 92.1726 32.3091 92.9885 32.3091C93.548 32.3091 94.1075 32.2511 94.667 32.135C95.2265 31.9957 95.6928 31.7635 96.0658 31.4385C96.4388 31.1135 96.6253 30.6607 96.6253 30.0803C96.6253 29.6392 96.5204 29.291 96.3106 29.0356C96.1008 28.757 95.7977 28.5364 95.4014 28.3739C95.0284 28.1882 94.5621 28.0257 94.0026 27.8864C93.6529 27.7935 93.2916 27.7122 92.9186 27.6426C92.5456 27.5729 92.1842 27.4917 91.8345 27.3988C91.4848 27.3059 91.1351 27.2015 90.7855 27.0854C89.7364 26.83 88.7339 26.5398 87.7781 26.2148C86.8223 25.8665 85.9714 25.4254 85.2254 24.8914C84.5027 24.3574 83.9315 23.6609 83.5119 22.8019C83.0922 21.9429 82.8824 20.8749 82.8824 19.598C82.8824 18.3675 83.0922 17.3228 83.5119 16.4638C83.9548 15.5815 84.5376 14.8734 85.2603 14.3395C86.0063 13.7823 86.8106 13.3644 87.6732 13.0858C88.5591 12.7839 89.4333 12.575 90.2959 12.4589C91.1818 12.3428 91.9977 12.2848 92.7437 12.2848C94.3989 12.2848 95.8676 12.5866 97.1499 13.1902C98.4554 13.7939 99.5044 14.6877 100.297 15.8718C101.113 17.0326 101.603 18.472 101.766 20.19H96.2756C96.1824 19.5864 95.9376 19.0873 95.5413 18.6926C95.1683 18.2979 94.6787 17.9961 94.0726 17.7871C93.4897 17.5782 92.8137 17.4737 92.0443 17.4737C91.5781 17.4737 91.1235 17.5201 90.6805 17.613C90.2609 17.6827 89.8879 17.7987 89.5615 17.9613C89.2585 18.1238 89.002 18.3443 88.7922 18.6229C88.6057 18.8783 88.5125 19.2033 88.5125 19.598C88.5125 20.0159 88.6523 20.3758 88.9321 20.6776C89.2118 20.9562 89.6082 21.2 90.121 21.4089C90.6572 21.6179 91.31 21.8268 92.0793 22.0358C92.6155 22.2215 93.1634 22.3724 93.7229 22.4885C94.3057 22.5814 94.8652 22.709 95.4014 22.8716C96.3805 23.1037 97.2781 23.3823 98.094 23.7074C98.9333 24.0092 99.6676 24.4039 100.297 24.8914C100.927 25.3557 101.416 25.9826 101.766 26.772C102.139 27.5381 102.325 28.5132 102.325 29.6972C102.325 31.1367 102.057 32.3555 101.521 33.3539C100.985 34.329 100.25 35.1299 99.3179 35.7568C98.3854 36.3836 97.3364 36.8364 96.1707 37.115C95.0284 37.3936 93.8394 37.5329 92.6039 37.5329Z" fill="url(#paint6_linear_6725_13850)"/>
<path d="M69.5833 37.5329C67.0189 37.5329 64.8275 37.0221 63.0091 36.0006C61.1907 34.979 59.8036 33.528 58.8477 31.6474C57.9152 29.7669 57.449 27.5613 57.449 25.0307C57.449 22.4537 57.9385 20.2133 58.9177 18.3095C59.8968 16.4057 61.2839 14.9315 63.079 13.8867C64.8974 12.8188 67.0422 12.2848 69.5133 12.2848C71.425 12.2848 73.1501 12.6214 74.6888 13.2947C76.2274 13.968 77.4747 14.9663 78.4305 16.2897C79.4096 17.5898 80.0041 19.2382 80.2139 21.2348H74.7937C74.5139 20.0972 73.9428 19.2149 73.0802 18.5881C72.2409 17.938 71.0986 17.613 69.6532 17.613C68.0913 17.613 66.844 17.9729 65.9115 18.6926C64.979 19.3891 64.3029 20.2829 63.8833 21.3741C63.487 22.4653 63.2888 23.6029 63.2888 24.7869C63.2888 26.0174 63.4986 27.2015 63.9183 28.3391C64.3612 29.4767 65.0489 30.4054 65.9815 31.1251C66.9373 31.8448 68.1962 32.2046 69.7581 32.2046C70.6906 32.2046 71.5066 32.0653 72.206 31.7867C72.9287 31.5081 73.5231 31.1018 73.9894 30.5679C74.4557 30.0339 74.782 29.3954 74.9685 28.6525H80.5286C80.3421 30.5795 79.7244 32.2046 78.6753 33.528C77.6495 34.8513 76.3323 35.8496 74.7238 36.5229C73.1385 37.1962 71.425 37.5329 69.5833 37.5329Z" fill="url(#paint7_linear_6725_13850)"/>
<path d="M19.9977 36.4076C19.5693 36.4076 19.2222 36.0606 19.2222 35.6321C19.2222 35.2037 19.5693 34.8567 19.9977 34.8567C20.4261 34.8567 20.7732 35.2037 20.7732 35.6321C20.7732 36.0606 20.4261 36.4076 19.9977 36.4076Z" fill="url(#paint8_linear_6725_13850)"/>
<path d="M19.2222 40.4905C19.2222 40.919 19.5693 41.266 19.9977 41.266C20.4261 41.266 20.7732 40.919 20.7732 40.4905C20.7732 40.0621 20.4261 39.715 19.9977 39.715C19.5693 39.715 19.2222 40.0621 19.2222 40.4905Z" fill="url(#paint9_linear_6725_13850)"/>
<path d="M19.2222 45.9403C19.2222 46.3688 19.5693 46.7158 19.9977 46.7158C20.4261 46.7158 20.7732 46.3688 20.7732 45.9403C20.7732 45.5119 20.4261 45.1649 19.9977 45.1649C19.5693 45.1649 19.2222 45.5119 19.2222 45.9403Z" fill="url(#paint10_linear_6725_13850)"/>
<path d="M14.6037 42.3842C14.6037 42.8126 14.9508 43.1597 15.3792 43.1597C15.8076 43.1597 16.1547 42.8126 16.1547 42.3842C16.1547 41.9558 15.8076 41.6087 15.3792 41.6087C14.9508 41.6087 14.6037 41.9558 14.6037 42.3842Z" fill="url(#paint11_linear_6725_13850)"/>
<path d="M14.6037 35.6321C14.6037 36.0606 14.9508 36.4076 15.3792 36.4076C15.8076 36.4076 16.1547 36.0606 16.1547 35.6321C16.1547 35.2037 15.8076 34.8567 15.3792 34.8567C14.9508 34.8567 14.6037 35.2037 14.6037 35.6321Z" fill="url(#paint12_linear_6725_13850)"/>
<path d="M11.2619 38.4468C11.2619 38.8753 11.6089 39.2223 12.0374 39.2223C12.4658 39.2223 12.8128 38.8753 12.8128 38.4468C12.8128 38.0184 12.4658 37.6714 12.0374 37.6714C11.6089 37.6714 11.2619 38.0184 11.2619 38.4468Z" fill="url(#paint13_linear_6725_13850)"/>
<path d="M9.30395 24.5611C8.80696 25.3323 8.72985 25.9706 9.06403 26.5148C9.52674 27.2645 10.7049 27.8043 12.1102 28.1085C10.9791 27.7101 9.81807 27.0203 9.85235 25.8421C9.89519 24.364 10.8035 23.7985 11.4461 23.5671C10.0623 23.5328 9.35965 24.484 9.30395 24.5611Z" fill="url(#paint14_linear_6725_13850)"/>
<path fill-rule="evenodd" clip-rule="evenodd" d="M23.7192 14.863C23.6472 19.1002 23.5837 23.178 23.548 26.0033C23.3331 34.6775 23.2944 43.3387 23.9989 52L23.958 51.9963C22.0489 51.8127 19.908 50.7235 19.811 50.6729L19.7725 50.6515C13.34 46.757 9.4968 41.8866 7.25422 37.0077L5.39681 36.7295L5.23846 36.4899C5.12719 36.323 5.02447 36.1346 4.92176 35.9292C4.41675 36.3358 4.24128 36.7295 4.11717 37.012L4.11543 37.0159C4.04332 37.1771 3.975 37.3298 3.86039 37.4614C3.80047 37.5256 3.625 37.6968 3.32542 37.6968C3.23126 37.6968 3.11998 37.6796 3.00015 37.6326C2.25976 37.3544 0.0171748 35.3643 5.49152e-05 33.6652C-0.0127864 32.1459 2.2298 30.5539 3.2441 29.9119H3.25265C3.21414 29.6851 3.19274 29.5396 3.18846 29.5096L3.13711 29.1672L4.66069 27.802L4.6538 27.7476C5.4564 20.4257 9.37725 14.2678 11.2331 12.0853C12.1627 11.0658 13.2165 10.2262 14.3817 9.56647L14.4404 9.53667C16.1673 11.4636 18.2016 14.2018 20.0891 17.6294C19.28 15.5432 17.5724 11.9604 15.41 9.04411L15.4526 9.02243C16.9734 8.34131 18.6655 7.93007 20.5204 7.80584L23.7192 14.863ZM6.67217 35.6211L6.17572 35.5483C5.27698 33.952 4.68637 30.7122 4.5109 29.6594L4.8918 29.317C5.24702 31.3499 5.81622 33.4769 6.67217 35.6211ZM4.42103 34.7181C3.66351 35.2402 3.29973 35.788 3.09431 36.1946H3.09003C2.42667 35.6639 1.3011 34.4313 1.29254 33.6567C1.28826 33.096 2.33252 32.0946 3.50517 31.2857C3.71487 32.3 4.01873 33.5882 4.42103 34.7181ZM18.5967 35.7649C18.5967 35.0837 19.1537 34.531 19.8349 34.531C20.5161 34.531 21.0688 35.0794 21.0688 35.7649C21.0688 36.4504 20.5204 37.0031 19.8349 37.0031C19.1494 37.0031 18.5967 36.4462 18.5967 35.7649ZM18.5967 40.6233C18.5967 39.9421 19.1537 39.3894 19.8349 39.3894C20.5161 39.3894 21.0688 39.9378 21.0688 40.6233C21.0688 41.3088 20.5204 41.8615 19.8349 41.8615C19.1494 41.8615 18.5967 41.3046 18.5967 40.6233ZM19.8349 44.8392C19.1537 44.8392 18.5967 45.3919 18.5967 46.0731C18.5967 46.7544 19.1494 47.3113 19.8349 47.3113C20.5204 47.3113 21.0688 46.7586 21.0688 46.0731C21.0688 45.3876 20.5161 44.8392 19.8349 44.8392ZM13.9825 42.517C13.9825 41.8358 14.5395 41.2831 15.2207 41.2831C15.9019 41.2831 16.4546 41.8315 16.4546 42.517C16.4546 43.2025 15.9062 43.7552 15.2207 43.7552C14.5352 43.7552 13.9825 43.1982 13.9825 42.517ZM15.2207 34.531C14.5395 34.531 13.9825 35.0837 13.9825 35.7649C13.9825 36.4462 14.5352 37.0031 15.2207 37.0031C15.9062 37.0031 16.4546 36.4504 16.4546 35.7649C16.4546 35.0794 15.9019 34.531 15.2207 34.531ZM10.6407 38.5796C10.6407 37.8984 11.1976 37.3457 11.8788 37.3457C12.5601 37.3457 13.1127 37.8941 13.1127 38.5796C13.1127 39.2651 12.5643 39.8178 11.8788 39.8178C11.1933 39.8178 10.6407 39.2609 10.6407 38.5796ZM12.1445 22.5688C9.68954 22.119 8.46421 23.8927 8.4128 23.9698V23.9784C7.49166 25.3965 7.76158 26.4462 8.15145 27.0803C9.21826 28.8155 12.4015 29.471 14.9379 29.471C15.4092 29.471 15.8633 29.4495 16.2746 29.4067C18.8238 29.1411 20.499 28.3699 20.996 27.2388C21.2488 26.6604 21.1674 26.0478 20.7604 25.5036C19.6893 24.0598 13.8925 22.8945 12.1445 22.5731V22.5688Z" fill="url(#paint15_linear_6725_13850)"/>
<path fill-rule="evenodd" clip-rule="evenodd" d="M23.7709 11.8768C23.8502 7.37898 23.934 2.98891 23.9995 0.00022102C23.3805 -0.00417106 16.9605 0.0263553 12.1502 3.09074L9.93334 2.52154L9.26998 3.2063C8.89336 2.92811 8.5253 2.43594 8.26424 2.08072C8.10161 1.85818 7.96894 1.67843 7.83626 1.54575C7.4896 1.1991 6.9632 1.10494 6.52667 1.31037C3.26978 2.82968 3.06863 5.79554 3.05579 6.12936C3.04723 6.39898 3.14994 6.66433 3.33397 6.8612C3.52228 7.05807 3.77479 7.16934 4.04869 7.17362C4.75485 7.18646 5.46957 7.4518 5.95746 7.67863L5.59368 8.1708L6.33835 10.2807C5.6807 12.3142 4.30797 17.3259 4.36806 23.4727C4.99497 20.8618 6.20297 16.1056 10.2821 11.2157C11.2245 10.1876 12.2784 9.32658 13.4307 8.62833L13.5364 8.57171C12.3781 7.39268 11.4237 6.64993 10.8454 6.38967C10.7223 6.64615 10.553 6.92308 10.3228 7.21642C9.02603 8.8684 7.34409 8.89408 7.27562 8.89408H7.20714L7.02739 8.38051L7.15151 8.20932L7.68647 8.38051L7.89618 8.30347L7.89964 8.30212C8.04007 8.24747 10.3721 7.33988 10.5967 5.06798L10.6181 4.87112L10.1944 4.10076L10.3399 3.94669L10.8021 4.06652L11.0418 4.53302H11.0375L11.0379 4.53399L11.0387 4.53585C11.0486 4.55919 11.117 4.72051 11.1398 4.99135C12.35 5.63104 13.5175 6.71293 14.5946 8.00512L14.6387 7.98147C16.4936 7.09901 18.5798 6.59781 20.893 6.495L21.3257 6.47786L23.7709 11.8768ZM7.23885 2.84489C7.62826 3.37123 8.19689 4.13982 8.949 4.49878H8.95328L9.29994 5.1279C9.09451 6.20212 8.07165 6.80556 7.64367 7.01527L7.19002 6.86976C6.88188 6.68573 5.68783 6.01381 4.37395 5.90253C4.46811 5.22206 4.91748 3.523 6.98887 2.51298C7.03519 2.56798 7.09129 2.64451 7.15056 2.72537L7.1512 2.72624C7.17936 2.76465 7.20823 2.80403 7.2371 2.84252L7.23885 2.84489Z" fill="url(#paint16_linear_6725_13850)"/>
<path d="M28.1119 36.4076C28.5404 36.4076 28.8874 36.0606 28.8874 35.6321C28.8874 35.2037 28.5404 34.8567 28.1119 34.8567C27.6835 34.8567 27.3365 35.2037 27.3365 35.6321C27.3365 36.0606 27.6835 36.4076 28.1119 36.4076Z" fill="url(#paint17_linear_6725_13850)"/>
<path d="M28.8874 40.4905C28.8874 40.919 28.5404 41.266 28.1119 41.266C27.6835 41.266 27.3365 40.919 27.3365 40.4905C27.3365 40.0621 27.6835 39.715 28.1119 39.715C28.5404 39.715 28.8874 40.0621 28.8874 40.4905Z" fill="url(#paint18_linear_6725_13850)"/>
<path d="M28.8874 45.9403C28.8874 46.3688 28.5404 46.7158 28.1119 46.7158C27.6835 46.7158 27.3365 46.3688 27.3365 45.9403C27.3365 45.5119 27.6835 45.1649 28.1119 45.1649C28.5404 45.1649 28.8874 45.5119 28.8874 45.9403Z" fill="url(#paint19_linear_6725_13850)"/>
<path d="M33.5059 42.3842C33.5059 42.8126 33.1589 43.1597 32.7304 43.1597C32.302 43.1597 31.955 42.8126 31.955 42.3842C31.955 41.9558 32.302 41.6087 32.7304 41.6087C33.1589 41.6087 33.5059 41.9558 33.5059 42.3842Z" fill="url(#paint20_linear_6725_13850)"/>
<path d="M33.5059 35.6321C33.5059 36.0606 33.1589 36.4076 32.7304 36.4076C32.302 36.4076 31.955 36.0606 31.955 35.6321C31.955 35.2037 32.302 34.8567 32.7304 34.8567C33.1589 34.8567 33.5059 35.2037 33.5059 35.6321Z" fill="url(#paint21_linear_6725_13850)"/>
<path d="M36.8477 38.4468C36.8477 38.8753 36.5007 39.2223 36.0723 39.2223C35.6438 39.2223 35.2968 38.8753 35.2968 38.4468C35.2968 38.0184 35.6438 37.6714 36.0723 37.6714C36.5007 37.6714 36.8477 38.0184 36.8477 38.4468Z" fill="url(#paint22_linear_6725_13850)"/>
<path d="M38.8057 24.5611C39.3027 25.3323 39.3798 25.9706 39.0456 26.5148C38.5829 27.2645 37.4047 27.8043 35.9994 28.1085C37.1305 27.7101 38.2915 27.0203 38.2573 25.8421C38.2144 24.364 37.3061 23.7985 36.6635 23.5671C38.0473 23.5328 38.75 24.484 38.8057 24.5611Z" fill="url(#paint23_linear_6725_13850)"/>
<path fill-rule="evenodd" clip-rule="evenodd" d="M24.1291 51.9983L24.1516 51.9963C26.0607 51.8127 28.2016 50.7235 28.2986 50.6729L28.3371 50.6515C34.7696 46.757 38.6128 41.8866 40.8554 37.0077L42.7128 36.7295L42.8712 36.4899C42.9824 36.323 43.0851 36.1346 43.1879 35.9292C43.6929 36.3358 43.8683 36.7295 43.9924 37.012L43.9942 37.0159C44.0663 37.1771 44.1346 37.3298 44.2492 37.4614C44.3091 37.5256 44.4846 37.6968 44.7842 37.6968C44.8784 37.6968 44.9896 37.6796 45.1095 37.6326C45.8499 37.3544 48.0924 35.3643 48.1096 33.6652C48.1224 32.1459 45.8798 30.5539 44.8655 29.9119H44.857C44.8955 29.6851 44.9169 29.5396 44.9212 29.5096L44.9725 29.1672L43.4489 27.802L43.4558 27.7476C42.6532 20.4257 38.7324 14.2678 36.8765 12.0853C35.9469 11.0658 34.8931 10.2262 33.7279 9.56647L33.6693 9.53667C31.9423 11.4636 29.908 14.2018 28.0206 17.6294C28.8296 15.5432 30.5372 11.9604 32.6997 9.04411L32.657 9.02243C31.1362 8.34131 29.4441 7.93007 27.5893 7.80584L24.408 14.8241C24.4803 19.0732 24.5441 23.1655 24.5799 26.0033C24.7948 34.6769 24.8335 43.3376 24.1291 51.9983ZM41.4374 35.6211L41.9339 35.5483C42.8326 33.952 43.4232 30.7122 43.5987 29.6594L43.2178 29.317C42.8626 31.3499 42.2934 33.4769 41.4374 35.6211ZM43.6886 34.7181C44.4461 35.2402 44.8099 35.788 45.0153 36.1946H45.0196C45.6829 35.6639 46.8085 34.4313 46.8171 33.6567C46.8214 33.096 45.7771 32.0946 44.6044 31.2857C44.3947 32.3 44.0909 33.5882 43.6886 34.7181ZM29.5129 35.7649C29.5129 35.0837 28.9559 34.531 28.2747 34.531C27.5935 34.531 27.0408 35.0794 27.0408 35.7649C27.0408 36.4504 27.5892 37.0031 28.2747 37.0031C28.9602 37.0031 29.5129 36.4462 29.5129 35.7649ZM29.5129 40.6233C29.5129 39.9421 28.9559 39.3894 28.2747 39.3894C27.5935 39.3894 27.0408 39.9378 27.0408 40.6233C27.0408 41.3088 27.5892 41.8615 28.2747 41.8615C28.9602 41.8615 29.5129 41.3046 29.5129 40.6233ZM28.2747 44.8392C28.9559 44.8392 29.5129 45.3919 29.5129 46.0731C29.5129 46.7544 28.9602 47.3113 28.2747 47.3113C27.5892 47.3113 27.0408 46.7586 27.0408 46.0731C27.0408 45.3876 27.5935 44.8392 28.2747 44.8392ZM34.1271 42.517C34.1271 41.8358 33.5702 41.2831 32.889 41.2831C32.2077 41.2831 31.6551 41.8315 31.6551 42.517C31.6551 43.2025 32.2035 43.7552 32.889 43.7552C33.5744 43.7552 34.1271 43.1982 34.1271 42.517ZM32.889 34.531C33.5702 34.531 34.1271 35.0837 34.1271 35.7649C34.1271 36.4462 33.5744 37.0031 32.889 37.0031C32.2035 37.0031 31.6551 36.4504 31.6551 35.7649C31.6551 35.0794 32.2077 34.531 32.889 34.531ZM37.469 38.5796C37.469 37.8984 36.912 37.3457 36.2308 37.3457C35.5496 37.3457 34.9969 37.8941 34.9969 38.5796C34.9969 39.2651 35.5453 39.8178 36.2308 39.8178C36.9163 39.8178 37.469 39.2609 37.469 38.5796ZM35.9651 22.5688C38.4201 22.119 39.6454 23.8927 39.6968 23.9698V23.9784C40.618 25.3965 40.348 26.4462 39.9582 27.0803C38.8914 28.8155 35.7081 29.471 33.1717 29.471C32.7004 29.471 32.2463 29.4495 31.835 29.4067C29.2858 29.1411 27.6106 28.3699 27.1136 27.2388C26.8608 26.6604 26.9422 26.0478 27.3493 25.5036C28.4204 24.0598 34.2171 22.8945 35.9651 22.5731V22.5688Z" fill="url(#paint24_linear_6725_13850)"/>
<path fill-rule="evenodd" clip-rule="evenodd" d="M24.3563 11.838L26.7839 6.47786L27.2166 6.495C29.5298 6.59781 31.616 7.09901 33.4709 7.98147L33.5151 8.00512C34.5921 6.71293 35.7596 5.63104 36.9698 4.99135C36.9926 4.72051 37.061 4.55919 37.0709 4.53585L37.0717 4.53399L37.0721 4.53302H37.0678L37.3075 4.06652L37.7697 3.94669L37.9152 4.10076L37.4915 4.87112L37.5129 5.06798C37.7376 7.33988 40.0695 8.24747 40.21 8.30212L40.2134 8.30347L40.4231 8.38051L40.9581 8.20932L41.0822 8.38051L40.9025 8.89408H40.834C40.7655 8.89408 39.0836 8.8684 37.7868 7.21642C37.5566 6.92308 37.3873 6.64615 37.2643 6.38967C36.6859 6.64993 35.7315 7.39268 34.5732 8.57171L34.6789 8.62833C35.8313 9.32658 36.8851 10.1876 37.8275 11.2157C41.9066 16.1056 43.1146 20.8618 43.7416 23.4727C43.8016 17.3259 42.4289 12.3142 41.7713 10.2807L42.5159 8.1708L42.1522 7.67863C42.64 7.4518 43.3548 7.18646 44.0609 7.17362C44.3348 7.16934 44.5873 7.05807 44.7756 6.8612C44.9597 6.66433 45.0624 6.39898 45.0538 6.12936C45.041 5.79554 44.8398 2.82968 41.5829 1.31037C41.1464 1.10494 40.62 1.1991 40.2734 1.54575C40.1407 1.67843 40.008 1.85818 39.8454 2.08072C39.5843 2.43594 39.2163 2.92811 38.8396 3.2063L38.1763 2.52154L35.9594 3.09074C31.1928 0.0541532 24.8454 -0.00336758 24.1284 0.000112353C24.1937 2.98566 24.2772 7.35685 24.3563 11.838ZM40.8708 2.84489C40.4813 3.37123 39.9127 4.13982 39.1606 4.49878H39.1563L38.8097 5.1279C39.0151 6.20212 40.038 6.80556 40.4659 7.01527L40.9196 6.86976C41.2277 6.68573 42.4218 6.01381 43.7357 5.90253C43.6415 5.22206 43.1921 3.523 41.1207 2.51298C41.0744 2.56795 41.0184 2.64444 40.9591 2.72525L40.9584 2.72624C40.9303 2.76465 40.9014 2.80403 40.8725 2.84252L40.8708 2.84489Z" fill="url(#paint25_linear_6725_13850)"/>
<defs>
<linearGradient id="paint0_linear_6725_13850" x1="190.797" y1="37.5329" x2="190.797" y2="17.0282" gradientUnits="userSpaceOnUse">
<stop offset="0.430812" stop-color="#FFA142"/>
<stop offset="1" stop-color="#FFBF85"/>
</linearGradient>
<linearGradient id="paint1_linear_6725_13850" x1="177.55" y1="37.2543" x2="177.55" y2="10.617" gradientUnits="userSpaceOnUse">
<stop offset="0.430812" stop-color="#FFA142"/>
<stop offset="1" stop-color="#FFBF85"/>
</linearGradient>
<linearGradient id="paint2_linear_6725_13850" x1="166.468" y1="37.2543" x2="166.468" y2="12.31" gradientUnits="userSpaceOnUse">
<stop offset="0.430812" stop-color="#FFA142"/>
<stop offset="1" stop-color="#FFBF85"/>
</linearGradient>
<linearGradient id="paint3_linear_6725_13850" x1="152.843" y1="37.4981" x2="152.843" y2="12.2529" gradientUnits="userSpaceOnUse">
<stop offset="0.430812" stop-color="#FFA142"/>
<stop offset="1" stop-color="#FFBF85"/>
</linearGradient>
<linearGradient id="paint4_linear_6725_13850" x1="135.972" y1="37.5329" x2="135.972" y2="17.0658" gradientUnits="userSpaceOnUse">
<stop offset="0.430812" stop-color="#FFA142"/>
<stop offset="1" stop-color="#FFBF85"/>
</linearGradient>
<linearGradient id="paint5_linear_6725_13850" x1="116.16" y1="37.2543" x2="116.16" y2="10.617" gradientUnits="userSpaceOnUse">
<stop offset="0.430812" stop-color="#FFA142"/>
<stop offset="1" stop-color="#FFBF85"/>
</linearGradient>
<linearGradient id="paint6_linear_6725_13850" x1="97.1017" y1="31.3023" x2="91.5916" y2="14.8472" gradientUnits="userSpaceOnUse">
<stop stop-color="#E2E2E2"/>
<stop offset="1" stop-color="white"/>
</linearGradient>
<linearGradient id="paint7_linear_6725_13850" x1="74.5743" y1="31.3023" x2="69.6255" y2="14.4558" gradientUnits="userSpaceOnUse">
<stop stop-color="#E2E2E2"/>
<stop offset="1" stop-color="white"/>
</linearGradient>
<linearGradient id="paint8_linear_6725_13850" x1="11.7114" y1="52" x2="11.7114" y2="-4.17857" gradientUnits="userSpaceOnUse">
<stop offset="0.430812" stop-color="#FFA142"/>
<stop offset="1" stop-color="#FFBF85"/>
</linearGradient>
<linearGradient id="paint9_linear_6725_13850" x1="11.7114" y1="52" x2="11.7114" y2="-4.17857" gradientUnits="userSpaceOnUse">
<stop offset="0.430812" stop-color="#FFA142"/>
<stop offset="1" stop-color="#FFBF85"/>
</linearGradient>
<linearGradient id="paint10_linear_6725_13850" x1="11.7114" y1="52" x2="11.7114" y2="-4.17857" gradientUnits="userSpaceOnUse">
<stop offset="0.430812" stop-color="#FFA142"/>
<stop offset="1" stop-color="#FFBF85"/>
</linearGradient>
<linearGradient id="paint11_linear_6725_13850" x1="11.7114" y1="52" x2="11.7114" y2="-4.17857" gradientUnits="userSpaceOnUse">
<stop offset="0.430812" stop-color="#FFA142"/>
<stop offset="1" stop-color="#FFBF85"/>
</linearGradient>
<linearGradient id="paint12_linear_6725_13850" x1="11.7114" y1="52" x2="11.7114" y2="-4.17857" gradientUnits="userSpaceOnUse">
<stop offset="0.430812" stop-color="#FFA142"/>
<stop offset="1" stop-color="#FFBF85"/>
</linearGradient>
<linearGradient id="paint13_linear_6725_13850" x1="11.7114" y1="52" x2="11.7114" y2="-4.17857" gradientUnits="userSpaceOnUse">
<stop offset="0.430812" stop-color="#FFA142"/>
<stop offset="1" stop-color="#FFBF85"/>
</linearGradient>
<linearGradient id="paint14_linear_6725_13850" x1="11.7114" y1="52" x2="11.7114" y2="-4.17857" gradientUnits="userSpaceOnUse">
<stop offset="0.430812" stop-color="#FFA142"/>
<stop offset="1" stop-color="#FFBF85"/>
</linearGradient>
<linearGradient id="paint15_linear_6725_13850" x1="11.7114" y1="52" x2="11.7114" y2="-4.17857" gradientUnits="userSpaceOnUse">
<stop offset="0.430812" stop-color="#FFA142"/>
<stop offset="1" stop-color="#FFBF85"/>
</linearGradient>
<linearGradient id="paint16_linear_6725_13850" x1="11.7114" y1="52" x2="11.7114" y2="-4.17857" gradientUnits="userSpaceOnUse">
<stop offset="0.430812" stop-color="#FFA142"/>
<stop offset="1" stop-color="#FFBF85"/>
</linearGradient>
<linearGradient id="paint17_linear_6725_13850" x1="41.9227" y1="39.1665" x2="25.5341" y2="11.0196" gradientUnits="userSpaceOnUse">
<stop stop-color="#E2E2E2"/>
<stop offset="1" stop-color="white"/>
</linearGradient>
<linearGradient id="paint18_linear_6725_13850" x1="41.9227" y1="39.1665" x2="25.5341" y2="11.0196" gradientUnits="userSpaceOnUse">
<stop stop-color="#E2E2E2"/>
<stop offset="1" stop-color="white"/>
</linearGradient>
<linearGradient id="paint19_linear_6725_13850" x1="41.9227" y1="39.1665" x2="25.5341" y2="11.0196" gradientUnits="userSpaceOnUse">
<stop stop-color="#E2E2E2"/>
<stop offset="1" stop-color="white"/>
</linearGradient>
<linearGradient id="paint20_linear_6725_13850" x1="41.9227" y1="39.1665" x2="25.5341" y2="11.0196" gradientUnits="userSpaceOnUse">
<stop stop-color="#E2E2E2"/>
<stop offset="1" stop-color="white"/>
</linearGradient>
<linearGradient id="paint21_linear_6725_13850" x1="41.9227" y1="39.1665" x2="25.5341" y2="11.0196" gradientUnits="userSpaceOnUse">
<stop stop-color="#E2E2E2"/>
<stop offset="1" stop-color="white"/>
</linearGradient>
<linearGradient id="paint22_linear_6725_13850" x1="41.9227" y1="39.1665" x2="25.5341" y2="11.0196" gradientUnits="userSpaceOnUse">
<stop stop-color="#E2E2E2"/>
<stop offset="1" stop-color="white"/>
</linearGradient>
<linearGradient id="paint23_linear_6725_13850" x1="41.9227" y1="39.1665" x2="25.5341" y2="11.0196" gradientUnits="userSpaceOnUse">
<stop stop-color="#E2E2E2"/>
<stop offset="1" stop-color="white"/>
</linearGradient>
<linearGradient id="paint24_linear_6725_13850" x1="41.9227" y1="39.1665" x2="25.5341" y2="11.0196" gradientUnits="userSpaceOnUse">
<stop stop-color="#E2E2E2"/>
<stop offset="1" stop-color="white"/>
</linearGradient>
<linearGradient id="paint25_linear_6725_13850" x1="41.9227" y1="39.1665" x2="25.5341" y2="11.0196" gradientUnits="userSpaceOnUse">
<stop stop-color="#E2E2E2"/>
<stop offset="1" stop-color="white"/>
</linearGradient>
</defs>
</svg>
