<svg width="166" height="42" viewBox="0 0 166 42" fill="none" xmlns="http://www.w3.org/2000/svg">
<path fill-rule="evenodd" clip-rule="evenodd" d="M29.3558 10.2674C28.8218 9.36621 27.8564 8.80884 26.809 8.79695L15.7991 8.67199C14.7152 8.65969 13.709 9.23306 13.167 10.1718L7.88965 19.3126C7.35188 20.244 7.3539 21.3921 7.89495 22.3217L13.4406 31.8495C13.9739 32.7658 14.9513 33.3326 16.0116 33.3403L27.1213 33.4208C28.2036 33.4287 29.2062 32.8529 29.745 31.9142L34.9937 22.7684C35.5318 21.8307 35.5238 20.6759 34.9726 19.7457L29.3558 10.2674ZM26.8317 6.79708C28.5774 6.8169 30.1864 7.74584 31.0764 9.24778L36.6932 18.7262C37.6118 20.2764 37.6252 22.201 36.7283 23.7639L31.4796 32.9096C30.5817 34.4742 28.9107 35.4339 27.1068 35.4208L15.9971 35.3402C14.23 35.3274 12.601 34.3828 11.712 32.8555L6.16642 23.3277C5.26468 21.7785 5.26131 19.865 6.15759 18.3126L11.4349 9.17183C12.3382 7.60724 14.0153 6.65162 15.8218 6.67212L26.8317 6.79708Z" fill="url(#paint0_linear_2969_19192)"/>
<mask id="path-2-inside-1_2969_19192" fill="white">
<path d="M27.3304 10.4793C27.0226 10.3016 26.6748 10.1928 26.3567 10.1931L16.1999 10.2015C15.5635 10.202 15.3116 10.6384 15.6293 11.1897L20.7005 19.99C21.0182 20.5413 21.7725 20.9768 22.4088 20.9763L32.5656 20.9679C33.2019 20.9674 33.4539 20.531 33.1361 19.9797L28.065 11.1794C27.9062 10.9037 27.6382 10.657 27.3304 10.4793ZM27.0656 11.1521C27.0656 11.1521 27.0656 11.1521 27.0656 11.1521C27.4575 11.3922 27.7776 11.7082 27.9627 12.0379C28.1542 12.3855 28.1798 12.7197 28.034 12.9677C27.8882 13.2157 27.5828 13.3575 27.1842 13.3622C26.7856 13.367 26.3261 13.2343 25.9056 12.9931C25.4851 12.7518 25.1376 12.4215 24.9387 12.074C24.7896 11.8083 24.736 11.5478 24.7849 11.3265C24.8338 11.1052 24.983 10.9334 25.2129 10.8338C25.4428 10.7341 25.7427 10.7112 26.0733 10.768C26.4038 10.8248 26.7497 10.9587 27.0655 11.1521C27.0655 11.1521 27.0655 11.1521 27.0656 11.1521V11.1521ZM28.9648 14.5885C29.2762 14.7719 29.5478 15.0052 29.7456 15.2592C29.9434 15.5133 30.0586 15.7768 30.077 16.0168C30.0953 16.2569 30.0159 16.4628 29.8486 16.609C29.6814 16.7551 29.4337 16.835 29.1366 16.8385C28.7355 16.8433 28.2729 16.709 27.8505 16.4651C27.4281 16.2213 27.0805 15.8878 26.8841 15.5381C26.6877 15.1884 26.6587 14.8512 26.8034 14.6005C26.9481 14.3499 27.2547 14.2063 27.6557 14.2015C27.858 14.1992 28.078 14.2322 28.3029 14.2986C28.5278 14.3651 28.7529 14.4637 28.9648 14.5885ZM19.1055 11.221C19.1055 11.2211 19.1056 11.2211 19.1056 11.2211C19.4975 11.4612 19.8176 11.7772 20.0028 12.1069C20.1992 12.4566 20.2282 12.7939 20.0834 13.0445C19.9387 13.2952 19.6321 13.4387 19.2311 13.4434C18.8301 13.4482 18.3675 13.3139 17.945 13.07C17.5226 12.8261 17.175 12.4926 16.9787 12.143C16.8295 11.8773 16.7758 11.6167 16.8247 11.3954C16.8737 11.1741 17.0228 11.0023 17.2527 10.9026C17.4827 10.803 17.7826 10.78 18.1132 10.8369C18.4438 10.8937 18.7896 11.0276 19.1055 11.221L19.1055 11.221ZM30.9564 18.0804C30.9564 18.0804 30.9564 18.0804 30.9565 18.0805C31.3484 18.3205 31.6685 18.6366 31.8536 18.9663C32.0477 19.315 32.075 19.6508 31.9298 19.9002C31.7846 20.1495 31.4785 20.2922 31.0786 20.297C30.6788 20.3017 30.2176 20.1682 29.7961 19.9255C29.3746 19.6829 29.0271 19.3509 28.8295 19.0023C28.6804 18.7366 28.6268 18.476 28.6757 18.2547C28.7246 18.0334 28.8738 17.8617 29.1037 17.762C29.3336 17.6624 29.6335 17.6395 29.9641 17.6963C30.2947 17.7531 30.6405 17.887 30.9564 18.0804ZM21.0193 14.6833C21.3307 14.8667 21.6022 15.1 21.7999 15.354C21.9977 15.608 22.1129 15.8715 22.1312 16.1115C22.1495 16.3515 22.0701 16.5574 21.9029 16.7036C21.7356 16.8497 21.488 16.9296 21.1909 16.9332C20.9921 16.9372 20.7755 16.9066 20.5536 16.8433C20.3317 16.78 20.109 16.6851 19.8983 16.5642C19.6876 16.4433 19.493 16.2988 19.3259 16.139C19.1587 15.9791 19.0223 15.8071 18.9245 15.633C18.8267 15.4588 18.7694 15.2859 18.756 15.1242C18.7426 14.9625 18.7733 14.8153 18.8464 14.691C18.9194 14.5667 19.0333 14.4679 19.1816 14.4001C19.3299 14.3324 19.5095 14.2971 19.7101 14.2963C19.9124 14.2939 20.1325 14.3269 20.3574 14.3934C20.5822 14.4599 20.8073 14.5585 21.0193 14.6833ZM14.6392 11.7304C14.6392 11.7305 14.6392 11.7305 14.6392 11.7305C14.3569 11.5572 14.0327 11.6685 13.8041 12.0645L9.26591 19.9249C8.94785 20.4757 8.94787 21.3471 9.26583 21.898L14.1478 30.3557C14.4658 30.9065 14.9689 30.9065 15.2869 30.3557L19.8252 22.4952C20.1433 21.9443 20.1432 21.073 19.8252 20.5221L14.9432 12.0645C14.8539 11.9096 14.7498 11.7982 14.6393 11.7304C14.6393 11.7304 14.6393 11.7304 14.6392 11.7304V11.7304ZM32.6219 22.113C32.6219 22.113 32.6219 22.1129 32.6219 22.1129C32.508 22.0512 32.3596 22.0167 32.1808 22.0168L22.415 22.0175C21.779 22.0175 21.0243 22.4532 20.7063 23.0041L16.168 30.8647C15.85 31.4155 16.1016 31.8511 16.7377 31.8509L26.5034 31.8504C27.1395 31.8503 27.8939 31.4146 28.212 30.8638L32.7503 23.0032C32.9788 22.6073 32.9131 22.271 32.6219 22.1131C32.6219 22.1131 32.6219 22.113 32.6219 22.113V22.113ZM14.6873 13.2158C14.8648 13.3024 15.0277 13.4678 15.1595 13.6953C15.2914 13.9228 15.3876 14.2042 15.4384 14.5112C15.4891 14.8183 15.4927 15.1399 15.4487 15.4438C15.4047 15.7476 15.3147 16.0229 15.1878 16.2417C15.0934 16.4057 14.9805 16.5346 14.8556 16.6209C14.7307 16.7073 14.5962 16.7495 14.4599 16.7451C14.3235 16.7407 14.188 16.6898 14.061 16.5953C13.934 16.5008 13.8181 16.3645 13.7198 16.1943C13.6216 16.0241 13.5429 15.8233 13.4883 15.6034C13.4338 15.3835 13.4044 15.1487 13.4019 14.9126C13.3993 14.6764 13.4237 14.4435 13.4735 14.2272C13.5234 14.0109 13.5978 13.8153 13.6925 13.6518C13.8183 13.4328 13.9765 13.2773 14.1511 13.2008C14.3257 13.1243 14.5106 13.1294 14.6873 13.2158ZM31.3117 22.8138C31.4748 22.9237 31.5718 23.0813 31.5928 23.2708C31.6139 23.4603 31.5583 23.675 31.4316 23.8935C31.2405 24.2237 30.9 24.5403 30.4849 24.7736C30.0697 25.007 29.614 25.1381 29.2177 25.1381C28.8214 25.1381 28.517 25.007 28.3714 24.7736C28.2257 24.5402 28.2507 24.2237 28.4409 23.8934C28.567 23.6741 28.7604 23.4585 29.0015 23.2685C29.2427 23.0785 29.5231 22.9207 29.8143 22.8112C30.1056 22.7017 30.3974 22.6442 30.6604 22.6447C30.9233 22.6452 31.148 22.7035 31.3118 22.8139L31.3117 22.8138ZM23.0108 18.175C23.0108 18.1751 23.0108 18.1751 23.0108 18.1751C23.4027 18.4152 23.7228 18.7312 23.9079 19.0609C24.0994 19.4085 24.125 19.7426 23.9792 19.9906C23.8335 20.2386 23.5281 20.3804 23.1295 20.3852C22.7309 20.39 22.2713 20.2573 21.8508 20.016C21.4303 19.7748 21.0828 19.4445 20.884 19.097C20.7348 18.8313 20.6811 18.5707 20.7301 18.3494C20.779 18.1281 20.9281 17.9563 21.1581 17.8566C21.388 17.757 21.6879 17.7341 22.0185 17.7909C22.3491 17.8477 22.6949 17.9816 23.0107 18.175C23.0108 18.175 23.0108 18.175 23.0108 18.175V18.175ZM18.409 19.6621C18.5865 19.7487 18.7494 19.9142 18.8812 20.1416C19.0131 20.3691 19.1093 20.6506 19.1601 20.9576C19.2108 21.2646 19.2144 21.5862 19.1704 21.8901C19.1264 22.1939 19.0364 22.4692 18.9095 22.6881C18.8151 22.852 18.7022 22.9809 18.5773 23.0672C18.4524 23.1536 18.3179 23.1958 18.1816 23.1914C18.0452 23.187 17.9097 23.1361 17.7827 23.0416C17.6557 22.9471 17.5398 22.8108 17.4415 22.6406C17.3433 22.4705 17.2646 22.2697 17.2101 22.0497C17.1555 21.8298 17.1261 21.595 17.1236 21.3589C17.121 21.1228 17.1454 20.8899 17.1952 20.6735C17.2451 20.4572 17.3195 20.2616 17.4142 20.0981C17.54 19.8792 17.6982 19.7236 17.8728 19.6471C18.0474 19.5706 18.2323 19.5757 18.409 19.6621ZM23.8681 22.8138C24.0312 22.9237 24.1282 23.0813 24.1493 23.2708C24.1703 23.4603 24.1147 23.675 23.988 23.8935C23.7969 24.2237 23.4564 24.5403 23.0413 24.7737C22.6262 25.007 22.1704 25.1381 21.7741 25.1381C21.3778 25.1381 21.0734 25.007 20.9278 24.7736C20.7822 24.5403 20.8072 24.2237 20.9974 23.8935C21.1234 23.6741 21.3168 23.4586 21.558 23.2685C21.7991 23.0785 22.0795 22.9208 22.3707 22.8112C22.662 22.7017 22.9539 22.6443 23.2168 22.6448C23.4797 22.6452 23.7044 22.7036 23.8682 22.8139L23.8681 22.8138ZM14.7928 19.4793C14.9702 19.566 15.1331 19.7314 15.265 19.9589C15.3968 20.1864 15.493 20.4678 15.5438 20.7748C15.5946 21.0819 15.5981 21.4035 15.5541 21.7074C15.5102 22.0112 15.4202 22.2865 15.2933 22.5053C15.1024 22.8352 14.8407 23.0151 14.5658 23.0057C14.2908 22.9962 14.0251 22.7982 13.827 22.455C13.6288 22.1118 13.5145 21.6515 13.509 21.1754C13.5035 20.6992 13.6074 20.246 13.7979 19.9153C13.9237 19.6964 14.0819 19.5409 14.2565 19.4644C14.4311 19.3879 14.616 19.393 14.7928 19.4793ZM11.156 19.3323C11.3335 19.419 11.4964 19.5844 11.6282 19.8119C11.7601 20.0393 11.8563 20.3208 11.9071 20.6278C11.9578 20.9348 11.9614 21.2565 11.9174 21.5604C11.8734 21.8642 11.7834 22.1395 11.6565 22.3583C11.5621 22.5223 11.4492 22.6511 11.3242 22.7375C11.1993 22.8239 11.0649 22.8661 10.9285 22.8617C10.7922 22.8573 10.6567 22.8063 10.5297 22.7118C10.4027 22.6173 10.2868 22.4811 10.1885 22.3109C10.0902 22.1407 10.0116 21.9399 9.957 21.72C9.90244 21.5001 9.87305 21.2653 9.87051 21.0292C9.86796 20.793 9.89232 20.5601 9.94219 20.3438C9.99205 20.1274 10.0664 19.9319 10.1611 19.7683C10.287 19.5494 10.4451 19.3939 10.6197 19.3173C10.7944 19.2408 10.9793 19.246 11.156 19.3323ZM27.7804 28.9304C27.9435 29.0403 28.0404 29.1978 28.0615 29.3873C28.0825 29.5768 28.0269 29.7916 27.9002 30.01C27.7091 30.3402 27.3686 30.6568 26.9535 30.8902C26.5383 31.1236 26.0826 31.2546 25.6863 31.2546C25.29 31.2546 24.9856 31.1235 24.84 30.8902C24.6943 30.6568 24.7194 30.3402 24.9095 30.01C25.0356 29.7906 25.229 29.5751 25.4701 29.385C25.7113 29.195 25.9917 29.0373 26.2829 28.9277C26.5742 28.8182 26.866 28.7608 27.129 28.7612C27.3919 28.7617 27.6166 28.82 27.7804 28.9304ZM14.8778 25.7786C15.0553 25.8652 15.2181 26.0307 15.35 26.2581C15.4819 26.4856 15.5781 26.7671 15.6288 27.0741C15.6796 27.3811 15.6832 27.7028 15.6392 28.0066C15.5952 28.3105 15.5052 28.5857 15.3783 28.8046C15.2839 28.9685 15.171 29.0974 15.0461 29.1838C14.9211 29.2701 14.7867 29.3123 14.6503 29.3079C14.514 29.3035 14.3785 29.2526 14.2515 29.1581C14.1245 29.0636 14.0086 28.9273 13.9103 28.7572C13.812 28.587 13.7334 28.3862 13.6788 28.1662C13.6243 27.9463 13.5949 27.7116 13.5923 27.4754C13.5898 27.2393 13.6141 27.0064 13.664 26.79C13.7139 26.5737 13.7883 26.3781 13.8829 26.2146C14.0088 25.9957 14.1669 25.8402 14.3415 25.7636C14.5162 25.6871 14.7011 25.6923 14.8778 25.7786ZM20.3369 28.9304C20.5 29.0402 20.5969 29.1978 20.6179 29.3873C20.639 29.5768 20.5834 29.7915 20.4567 30.01C20.2656 30.3402 19.9251 30.6568 19.5099 30.8901C19.0948 31.1235 18.6391 31.2546 18.2428 31.2546C17.8465 31.2546 17.5421 31.1235 17.3965 30.8901C17.2508 30.6567 17.2758 30.3401 17.466 30.0099C17.5921 29.7906 17.7855 29.575 18.0266 29.385C18.2678 29.195 18.5481 29.0372 18.8394 28.9277C19.1307 28.8182 19.4225 28.7607 19.6854 28.7612C19.9484 28.7617 20.1731 28.82 20.3369 28.9304Z"/>
</mask>
<path d="M27.3304 10.4793C27.0226 10.3016 26.6748 10.1928 26.3567 10.1931L16.1999 10.2015C15.5635 10.202 15.3116 10.6384 15.6293 11.1897L20.7005 19.99C21.0182 20.5413 21.7725 20.9768 22.4088 20.9763L32.5656 20.9679C33.2019 20.9674 33.4539 20.531 33.1361 19.9797L28.065 11.1794C27.9062 10.9037 27.6382 10.657 27.3304 10.4793ZM27.0656 11.1521C27.0656 11.1521 27.0656 11.1521 27.0656 11.1521C27.4575 11.3922 27.7776 11.7082 27.9627 12.0379C28.1542 12.3855 28.1798 12.7197 28.034 12.9677C27.8882 13.2157 27.5828 13.3575 27.1842 13.3622C26.7856 13.367 26.3261 13.2343 25.9056 12.9931C25.4851 12.7518 25.1376 12.4215 24.9387 12.074C24.7896 11.8083 24.736 11.5478 24.7849 11.3265C24.8338 11.1052 24.983 10.9334 25.2129 10.8338C25.4428 10.7341 25.7427 10.7112 26.0733 10.768C26.4038 10.8248 26.7497 10.9587 27.0655 11.1521C27.0655 11.1521 27.0655 11.1521 27.0656 11.1521V11.1521ZM28.9648 14.5885C29.2762 14.7719 29.5478 15.0052 29.7456 15.2592C29.9434 15.5133 30.0586 15.7768 30.077 16.0168C30.0953 16.2569 30.0159 16.4628 29.8486 16.609C29.6814 16.7551 29.4337 16.835 29.1366 16.8385C28.7355 16.8433 28.2729 16.709 27.8505 16.4651C27.4281 16.2213 27.0805 15.8878 26.8841 15.5381C26.6877 15.1884 26.6587 14.8512 26.8034 14.6005C26.9481 14.3499 27.2547 14.2063 27.6557 14.2015C27.858 14.1992 28.078 14.2322 28.3029 14.2986C28.5278 14.3651 28.7529 14.4637 28.9648 14.5885ZM19.1055 11.221C19.1055 11.2211 19.1056 11.2211 19.1056 11.2211C19.4975 11.4612 19.8176 11.7772 20.0028 12.1069C20.1992 12.4566 20.2282 12.7939 20.0834 13.0445C19.9387 13.2952 19.6321 13.4387 19.2311 13.4434C18.8301 13.4482 18.3675 13.3139 17.945 13.07C17.5226 12.8261 17.175 12.4926 16.9787 12.143C16.8295 11.8773 16.7758 11.6167 16.8247 11.3954C16.8737 11.1741 17.0228 11.0023 17.2527 10.9026C17.4827 10.803 17.7826 10.78 18.1132 10.8369C18.4438 10.8937 18.7896 11.0276 19.1055 11.221L19.1055 11.221ZM30.9564 18.0804C30.9564 18.0804 30.9564 18.0804 30.9565 18.0805C31.3484 18.3205 31.6685 18.6366 31.8536 18.9663C32.0477 19.315 32.075 19.6508 31.9298 19.9002C31.7846 20.1495 31.4785 20.2922 31.0786 20.297C30.6788 20.3017 30.2176 20.1682 29.7961 19.9255C29.3746 19.6829 29.0271 19.3509 28.8295 19.0023C28.6804 18.7366 28.6268 18.476 28.6757 18.2547C28.7246 18.0334 28.8738 17.8617 29.1037 17.762C29.3336 17.6624 29.6335 17.6395 29.9641 17.6963C30.2947 17.7531 30.6405 17.887 30.9564 18.0804ZM21.0193 14.6833C21.3307 14.8667 21.6022 15.1 21.7999 15.354C21.9977 15.608 22.1129 15.8715 22.1312 16.1115C22.1495 16.3515 22.0701 16.5574 21.9029 16.7036C21.7356 16.8497 21.488 16.9296 21.1909 16.9332C20.9921 16.9372 20.7755 16.9066 20.5536 16.8433C20.3317 16.78 20.109 16.6851 19.8983 16.5642C19.6876 16.4433 19.493 16.2988 19.3259 16.139C19.1587 15.9791 19.0223 15.8071 18.9245 15.633C18.8267 15.4588 18.7694 15.2859 18.756 15.1242C18.7426 14.9625 18.7733 14.8153 18.8464 14.691C18.9194 14.5667 19.0333 14.4679 19.1816 14.4001C19.3299 14.3324 19.5095 14.2971 19.7101 14.2963C19.9124 14.2939 20.1325 14.3269 20.3574 14.3934C20.5822 14.4599 20.8073 14.5585 21.0193 14.6833ZM14.6392 11.7304C14.6392 11.7305 14.6392 11.7305 14.6392 11.7305C14.3569 11.5572 14.0327 11.6685 13.8041 12.0645L9.26591 19.9249C8.94785 20.4757 8.94787 21.3471 9.26583 21.898L14.1478 30.3557C14.4658 30.9065 14.9689 30.9065 15.2869 30.3557L19.8252 22.4952C20.1433 21.9443 20.1432 21.073 19.8252 20.5221L14.9432 12.0645C14.8539 11.9096 14.7498 11.7982 14.6393 11.7304C14.6393 11.7304 14.6393 11.7304 14.6392 11.7304V11.7304ZM32.6219 22.113C32.6219 22.113 32.6219 22.1129 32.6219 22.1129C32.508 22.0512 32.3596 22.0167 32.1808 22.0168L22.415 22.0175C21.779 22.0175 21.0243 22.4532 20.7063 23.0041L16.168 30.8647C15.85 31.4155 16.1016 31.8511 16.7377 31.8509L26.5034 31.8504C27.1395 31.8503 27.8939 31.4146 28.212 30.8638L32.7503 23.0032C32.9788 22.6073 32.9131 22.271 32.6219 22.1131C32.6219 22.1131 32.6219 22.113 32.6219 22.113V22.113ZM14.6873 13.2158C14.8648 13.3024 15.0277 13.4678 15.1595 13.6953C15.2914 13.9228 15.3876 14.2042 15.4384 14.5112C15.4891 14.8183 15.4927 15.1399 15.4487 15.4438C15.4047 15.7476 15.3147 16.0229 15.1878 16.2417C15.0934 16.4057 14.9805 16.5346 14.8556 16.6209C14.7307 16.7073 14.5962 16.7495 14.4599 16.7451C14.3235 16.7407 14.188 16.6898 14.061 16.5953C13.934 16.5008 13.8181 16.3645 13.7198 16.1943C13.6216 16.0241 13.5429 15.8233 13.4883 15.6034C13.4338 15.3835 13.4044 15.1487 13.4019 14.9126C13.3993 14.6764 13.4237 14.4435 13.4735 14.2272C13.5234 14.0109 13.5978 13.8153 13.6925 13.6518C13.8183 13.4328 13.9765 13.2773 14.1511 13.2008C14.3257 13.1243 14.5106 13.1294 14.6873 13.2158ZM31.3117 22.8138C31.4748 22.9237 31.5718 23.0813 31.5928 23.2708C31.6139 23.4603 31.5583 23.675 31.4316 23.8935C31.2405 24.2237 30.9 24.5403 30.4849 24.7736C30.0697 25.007 29.614 25.1381 29.2177 25.1381C28.8214 25.1381 28.517 25.007 28.3714 24.7736C28.2257 24.5402 28.2507 24.2237 28.4409 23.8934C28.567 23.6741 28.7604 23.4585 29.0015 23.2685C29.2427 23.0785 29.5231 22.9207 29.8143 22.8112C30.1056 22.7017 30.3974 22.6442 30.6604 22.6447C30.9233 22.6452 31.148 22.7035 31.3118 22.8139L31.3117 22.8138ZM23.0108 18.175C23.0108 18.1751 23.0108 18.1751 23.0108 18.1751C23.4027 18.4152 23.7228 18.7312 23.9079 19.0609C24.0994 19.4085 24.125 19.7426 23.9792 19.9906C23.8335 20.2386 23.5281 20.3804 23.1295 20.3852C22.7309 20.39 22.2713 20.2573 21.8508 20.016C21.4303 19.7748 21.0828 19.4445 20.884 19.097C20.7348 18.8313 20.6811 18.5707 20.7301 18.3494C20.779 18.1281 20.9281 17.9563 21.1581 17.8566C21.388 17.757 21.6879 17.7341 22.0185 17.7909C22.3491 17.8477 22.6949 17.9816 23.0107 18.175C23.0108 18.175 23.0108 18.175 23.0108 18.175V18.175ZM18.409 19.6621C18.5865 19.7487 18.7494 19.9142 18.8812 20.1416C19.0131 20.3691 19.1093 20.6506 19.1601 20.9576C19.2108 21.2646 19.2144 21.5862 19.1704 21.8901C19.1264 22.1939 19.0364 22.4692 18.9095 22.6881C18.8151 22.852 18.7022 22.9809 18.5773 23.0672C18.4524 23.1536 18.3179 23.1958 18.1816 23.1914C18.0452 23.187 17.9097 23.1361 17.7827 23.0416C17.6557 22.9471 17.5398 22.8108 17.4415 22.6406C17.3433 22.4705 17.2646 22.2697 17.2101 22.0497C17.1555 21.8298 17.1261 21.595 17.1236 21.3589C17.121 21.1228 17.1454 20.8899 17.1952 20.6735C17.2451 20.4572 17.3195 20.2616 17.4142 20.0981C17.54 19.8792 17.6982 19.7236 17.8728 19.6471C18.0474 19.5706 18.2323 19.5757 18.409 19.6621ZM23.8681 22.8138C24.0312 22.9237 24.1282 23.0813 24.1493 23.2708C24.1703 23.4603 24.1147 23.675 23.988 23.8935C23.7969 24.2237 23.4564 24.5403 23.0413 24.7737C22.6262 25.007 22.1704 25.1381 21.7741 25.1381C21.3778 25.1381 21.0734 25.007 20.9278 24.7736C20.7822 24.5403 20.8072 24.2237 20.9974 23.8935C21.1234 23.6741 21.3168 23.4586 21.558 23.2685C21.7991 23.0785 22.0795 22.9208 22.3707 22.8112C22.662 22.7017 22.9539 22.6443 23.2168 22.6448C23.4797 22.6452 23.7044 22.7036 23.8682 22.8139L23.8681 22.8138ZM14.7928 19.4793C14.9702 19.566 15.1331 19.7314 15.265 19.9589C15.3968 20.1864 15.493 20.4678 15.5438 20.7748C15.5946 21.0819 15.5981 21.4035 15.5541 21.7074C15.5102 22.0112 15.4202 22.2865 15.2933 22.5053C15.1024 22.8352 14.8407 23.0151 14.5658 23.0057C14.2908 22.9962 14.0251 22.7982 13.827 22.455C13.6288 22.1118 13.5145 21.6515 13.509 21.1754C13.5035 20.6992 13.6074 20.246 13.7979 19.9153C13.9237 19.6964 14.0819 19.5409 14.2565 19.4644C14.4311 19.3879 14.616 19.393 14.7928 19.4793ZM11.156 19.3323C11.3335 19.419 11.4964 19.5844 11.6282 19.8119C11.7601 20.0393 11.8563 20.3208 11.9071 20.6278C11.9578 20.9348 11.9614 21.2565 11.9174 21.5604C11.8734 21.8642 11.7834 22.1395 11.6565 22.3583C11.5621 22.5223 11.4492 22.6511 11.3242 22.7375C11.1993 22.8239 11.0649 22.8661 10.9285 22.8617C10.7922 22.8573 10.6567 22.8063 10.5297 22.7118C10.4027 22.6173 10.2868 22.4811 10.1885 22.3109C10.0902 22.1407 10.0116 21.9399 9.957 21.72C9.90244 21.5001 9.87305 21.2653 9.87051 21.0292C9.86796 20.793 9.89232 20.5601 9.94219 20.3438C9.99205 20.1274 10.0664 19.9319 10.1611 19.7683C10.287 19.5494 10.4451 19.3939 10.6197 19.3173C10.7944 19.2408 10.9793 19.246 11.156 19.3323ZM27.7804 28.9304C27.9435 29.0403 28.0404 29.1978 28.0615 29.3873C28.0825 29.5768 28.0269 29.7916 27.9002 30.01C27.7091 30.3402 27.3686 30.6568 26.9535 30.8902C26.5383 31.1236 26.0826 31.2546 25.6863 31.2546C25.29 31.2546 24.9856 31.1235 24.84 30.8902C24.6943 30.6568 24.7194 30.3402 24.9095 30.01C25.0356 29.7906 25.229 29.5751 25.4701 29.385C25.7113 29.195 25.9917 29.0373 26.2829 28.9277C26.5742 28.8182 26.866 28.7608 27.129 28.7612C27.3919 28.7617 27.6166 28.82 27.7804 28.9304ZM14.8778 25.7786C15.0553 25.8652 15.2181 26.0307 15.35 26.2581C15.4819 26.4856 15.5781 26.7671 15.6288 27.0741C15.6796 27.3811 15.6832 27.7028 15.6392 28.0066C15.5952 28.3105 15.5052 28.5857 15.3783 28.8046C15.2839 28.9685 15.171 29.0974 15.0461 29.1838C14.9211 29.2701 14.7867 29.3123 14.6503 29.3079C14.514 29.3035 14.3785 29.2526 14.2515 29.1581C14.1245 29.0636 14.0086 28.9273 13.9103 28.7572C13.812 28.587 13.7334 28.3862 13.6788 28.1662C13.6243 27.9463 13.5949 27.7116 13.5923 27.4754C13.5898 27.2393 13.6141 27.0064 13.664 26.79C13.7139 26.5737 13.7883 26.3781 13.8829 26.2146C14.0088 25.9957 14.1669 25.8402 14.3415 25.7636C14.5162 25.6871 14.7011 25.6923 14.8778 25.7786ZM20.3369 28.9304C20.5 29.0402 20.5969 29.1978 20.6179 29.3873C20.639 29.5768 20.5834 29.7915 20.4567 30.01C20.2656 30.3402 19.9251 30.6568 19.5099 30.8901C19.0948 31.1235 18.6391 31.2546 18.2428 31.2546C17.8465 31.2546 17.5421 31.1235 17.3965 30.8901C17.2508 30.6567 17.2758 30.3401 17.466 30.0099C17.5921 29.7906 17.7855 29.575 18.0266 29.385C18.2678 29.195 18.5481 29.0372 18.8394 28.9277C19.1307 28.8182 19.4225 28.7607 19.6854 28.7612C19.9484 28.7617 20.1731 28.82 20.3369 28.9304Z" fill="url(#paint1_linear_2969_19192)" stroke="url(#paint2_linear_2969_19192)" stroke-width="4" mask="url(#path-2-inside-1_2969_19192)"/>
<path d="M45.0029 26.7025L46.6515 17.6995C47.119 15.0459 47.8817 13.9087 51.4741 13.9087H61.1439C63.6291 13.9087 64.6379 14.5247 64.6379 16.3016C64.6379 16.6807 64.5641 17.1308 64.4903 17.6284L64.2196 19.1921C64.1704 19.5238 63.9243 19.7133 63.5553 19.7133H59.8645C59.4954 19.7133 59.3478 19.5238 59.397 19.1921L59.52 18.4576C59.5446 18.3865 59.5446 18.2918 59.5446 18.2444C59.5446 17.889 59.3232 17.7232 58.8557 17.7232H53.5163C51.917 17.7232 51.5725 17.9601 51.3265 19.2395L50.2438 25.1625C50.1946 25.4232 50.17 25.6364 50.17 25.8022C50.17 26.5367 50.5883 26.6788 51.8678 26.6788H57.2071C57.773 26.6788 58.0683 26.4419 58.1421 25.9444L58.2897 25.2099C58.3389 24.8782 58.585 24.6887 58.9541 24.6887H62.6449C63.0139 24.6887 63.1616 24.8782 63.1124 25.2099L62.8171 26.7736C62.3004 29.5693 61.8821 30.4933 58.1175 30.4933H48.4476C46.0363 30.4933 44.8799 29.6878 44.8799 27.8398C44.8799 27.4844 44.9291 27.1053 45.0029 26.7025Z" fill="url(#paint3_linear_2969_19192)"/>
<path d="M70.2819 26.6788H76.9745C77.7865 26.6788 78.0818 26.4419 78.1802 25.8496L78.377 24.7835C78.4016 24.6887 78.4016 24.6176 78.4016 24.5465C78.4016 24.1201 78.1556 23.9542 77.4666 23.9542H69.4945C67.034 23.9542 65.9514 23.1487 65.9514 21.3007C65.9514 20.969 66.0006 20.5899 66.0744 20.1635L66.5419 17.6995C67.0094 15.0459 67.6984 13.9087 71.3399 13.9087H80.9852C83.4457 13.9087 84.4545 14.5247 84.4545 16.3016C84.4545 16.6807 84.4053 17.1308 84.3069 17.6284L84.1347 18.5998C84.0854 18.9315 83.8394 19.121 83.4703 19.121H79.7795C79.4105 19.121 79.2628 18.9315 79.312 18.5998L79.3366 18.4576C79.3612 18.3392 79.3612 18.2918 79.3612 18.2207C79.3612 17.889 79.1644 17.7232 78.6723 17.7232H72.5702C71.7582 17.7232 71.463 17.9601 71.3399 18.5524L71.1677 19.4764C71.1431 19.5712 71.1431 19.6422 71.1431 19.737C71.1431 20.1398 71.3891 20.3056 72.0781 20.3056H80.0502C82.4861 20.3056 83.5933 21.1112 83.5933 22.9355C83.5933 23.2908 83.5441 23.6699 83.4703 24.0964L83.0028 26.7025C82.5107 29.3561 81.8464 30.4933 78.2048 30.4933H67.9936C65.5085 30.4933 64.4997 29.8773 64.4997 28.1241C64.4997 27.7213 64.5489 27.2712 64.6473 26.7736L64.8195 25.8022C64.8934 25.4705 65.1148 25.281 65.4839 25.281H69.1747C69.5191 25.281 69.716 25.4705 69.6422 25.8022L69.6176 25.9207C69.593 26.0155 69.593 26.0865 69.593 26.1576C69.593 26.513 69.7898 26.6788 70.2819 26.6788Z" fill="url(#paint4_linear_2969_19192)"/>
<path d="M99.5481 17.7232H93.6921C92.0927 17.7232 91.7483 17.9601 91.5022 19.2395L90.4196 25.1625C90.3704 25.4232 90.3458 25.6364 90.3458 25.8022C90.3458 26.5367 90.764 26.6788 92.0435 26.6788H97.8996C98.4655 26.6788 98.7607 26.4419 98.8346 25.9444L99.1052 24.5465H95.5621C95.193 24.5465 95.0208 24.357 95.0946 24.0253L95.5621 21.4192C95.6359 21.0875 95.8573 20.8979 96.2264 20.8979H104.026C104.395 20.8979 104.568 21.0875 104.494 21.4192L103.51 26.7736C102.993 29.5693 102.575 30.4933 98.81 30.4933H88.6234C86.2121 30.4933 85.0556 29.6878 85.0556 27.8398C85.0556 27.4844 85.1048 27.1053 85.1786 26.7025L86.8272 17.6995C87.2947 15.0459 88.0575 13.9087 91.6498 13.9087H101.836C104.322 13.9087 105.33 14.5247 105.33 16.3016C105.33 16.6807 105.281 17.1308 105.183 17.6284L104.937 18.9552C104.887 19.2868 104.641 19.4764 104.272 19.4764H100.582C100.212 19.4764 100.04 19.2868 100.114 18.9552L100.212 18.4576C100.237 18.3865 100.237 18.2918 100.237 18.2444C100.237 17.889 100.016 17.7232 99.5481 17.7232Z" fill="url(#paint5_linear_2969_19192)"/>
<path d="M126.529 17.6995L124.881 26.7025C124.389 29.3561 123.7 30.4933 120.083 30.4933H109.576C107.165 30.4933 106.009 29.6878 106.009 27.8398C106.009 27.4844 106.058 27.1053 106.132 26.7025L107.78 17.6995C108.248 15.0459 109.01 13.9087 112.603 13.9087H123.109C125.545 13.9087 126.628 14.7142 126.628 16.5859C126.628 16.9176 126.603 17.2967 126.529 17.6995ZM119.664 17.7232H114.645C113.046 17.7232 112.701 17.9601 112.455 19.2395L111.372 25.1625C111.323 25.4232 111.299 25.6364 111.299 25.8022C111.299 26.5367 111.717 26.6788 112.996 26.6788H118.016C119.64 26.6788 119.96 26.4419 120.181 25.1625L121.264 19.2395C121.313 18.9552 121.338 18.7419 121.338 18.5524C121.338 17.8653 120.944 17.7232 119.664 17.7232Z" fill="url(#paint6_linear_2969_19192)"/>
<path d="M134.973 14.4299L132.734 26.6788H143.486C143.855 26.6788 144.003 26.8684 143.954 27.2001L143.437 29.9721C143.388 30.3038 143.166 30.4933 142.797 30.4933H127.641C127.271 30.4933 127.099 30.3038 127.148 29.9721L130.003 14.4299C130.076 14.0982 130.298 13.9087 130.667 13.9087H134.481C134.85 13.9087 135.047 14.0982 134.973 14.4299Z" fill="url(#paint7_linear_2969_19192)"/>
<path d="M165.612 18.9078L164.407 25.4942C163.816 28.669 162.217 30.4933 158.058 30.4933H145.854C145.485 30.4933 145.313 30.3038 145.362 29.9721L148.216 14.4299C148.29 14.0982 148.512 13.9087 148.881 13.9087H161.085C164.062 13.9087 165.711 15.3065 165.711 17.7468C165.711 18.1259 165.686 18.505 165.612 18.9078ZM159.535 24.8545L160.519 19.5475C160.544 19.3342 160.568 19.1447 160.568 18.9788C160.568 18.0785 159.978 17.7232 158.6 17.7232H152.596L150.948 26.6788H156.951C158.6 26.6788 159.289 26.205 159.535 24.8545Z" fill="url(#paint8_linear_2969_19192)"/>
<defs>
<linearGradient id="paint0_linear_2969_19192" x1="9.11733" y1="13.9841" x2="33.7437" y2="28.2022" gradientUnits="userSpaceOnUse">
<stop stop-color="#FFCF33"/>
<stop offset="1" stop-color="#FFC91A"/>
</linearGradient>
<linearGradient id="paint1_linear_2969_19192" x1="12.1244" y1="14.9737" x2="31.15" y2="26.4159" gradientUnits="userSpaceOnUse">
<stop stop-color="#FFCF33"/>
<stop offset="1" stop-color="#FFC91A"/>
</linearGradient>
<linearGradient id="paint2_linear_2969_19192" x1="11.4683" y1="15.1448" x2="31.2506" y2="26.5661" gradientUnits="userSpaceOnUse">
<stop stop-color="#FFCF33"/>
<stop offset="1" stop-color="#FFC91A"/>
</linearGradient>
<linearGradient id="paint3_linear_2969_19192" x1="105.295" y1="13.9087" x2="105.295" y2="30.4933" gradientUnits="userSpaceOnUse">
<stop stop-color="white"/>
<stop offset="1" stop-color="#DADADA"/>
</linearGradient>
<linearGradient id="paint4_linear_2969_19192" x1="105.295" y1="13.9087" x2="105.295" y2="30.4933" gradientUnits="userSpaceOnUse">
<stop stop-color="white"/>
<stop offset="1" stop-color="#DADADA"/>
</linearGradient>
<linearGradient id="paint5_linear_2969_19192" x1="105.295" y1="13.9087" x2="105.295" y2="30.4933" gradientUnits="userSpaceOnUse">
<stop stop-color="#FFCF33"/>
<stop offset="1" stop-color="#FFC91A"/>
</linearGradient>
<linearGradient id="paint6_linear_2969_19192" x1="105.295" y1="13.9087" x2="105.295" y2="30.4933" gradientUnits="userSpaceOnUse">
<stop stop-color="#FFCF33"/>
<stop offset="1" stop-color="#FFC91A"/>
</linearGradient>
<linearGradient id="paint7_linear_2969_19192" x1="105.295" y1="13.9087" x2="105.295" y2="30.4933" gradientUnits="userSpaceOnUse">
<stop stop-color="#FFCF33"/>
<stop offset="1" stop-color="#FFC91A"/>
</linearGradient>
<linearGradient id="paint8_linear_2969_19192" x1="105.295" y1="13.9087" x2="105.295" y2="30.4933" gradientUnits="userSpaceOnUse">
<stop stop-color="#FFCF33"/>
<stop offset="1" stop-color="#FFC91A"/>
</linearGradient>
</defs>
</svg>
