<svg class="size-4.5 text-primary" xmlns="http://www.w3.org/2000/svg" width="1em" height="1em" fill="none" viewBox="0 0 34 34"><circle cx="17" cy="17" r="16.15" fill="#F8D07C"></circle><circle cx="17" cy="17" r="16.15" fill="url(#coin_svg__a)"></circle><circle cx="17" cy="17" r="16.15" stroke="currentColor" stroke-linecap="round" stroke-linejoin="round" stroke-width="0.3"></circle><g filter="url(#coin_svg__b)"><circle cx="16.999" cy="17" r="12.343" fill="#F8D07C"></circle><circle cx="16.999" cy="17" r="12.343" fill="url(#coin_svg__c)"></circle><circle cx="16.999" cy="17" r="12.343" fill="#FFC54A" fill-opacity="0.41"></circle></g><circle cx="16.999" cy="17" r="12.143" stroke="currentColor" stroke-linecap="round" stroke-linejoin="round" stroke-width="0.4"></circle><path fill="#C08811" fill-rule="evenodd" d="M10.306 13.401v7.454l6.66 3.815 6.72-3.815-.02-7.453-6.68-3.757zm6.68-4.253-7.113 4v7.958l7.092 4.062 7.154-4.062-.02-7.958z" clip-rule="evenodd"></path><path fill="#C08811" d="m17.143 11.855-4.563 2.733v5.438l4.55 2.776 4.588-2.776-.013-5.438zm-.012 2.32 2.655 1.59.007 3.164-2.67 1.615-2.647-1.615.001-3.164z"></path><g filter="url(#coin_svg__d)"><path fill="url(#coin_svg__e)" fill-rule="evenodd" d="M10.306 13.082v7.454l6.66 3.814 6.72-3.815-.02-7.453-6.68-3.757zm6.68-4.253-7.113 4v7.958l7.092 4.061 7.154-4.061-.02-7.958z" clip-rule="evenodd"></path><path fill="url(#coin_svg__f)" d="m17.143 11.536-4.563 2.733v5.438l4.55 2.775 4.588-2.775-.013-5.438zm-.012 2.32 2.655 1.59.007 3.164-2.67 1.614-2.647-1.614.001-3.164z"></path></g><defs><linearGradient id="coin_svg__a" x1="17" x2="17" y1="1" y2="33" gradientUnits="userSpaceOnUse"><stop stop-color="#F8D07C"></stop><stop offset="1" stop-color="#F7C969"></stop></linearGradient><linearGradient id="coin_svg__c" x1="16.842" x2="16.842" y1="4.657" y2="26.36" gradientUnits="userSpaceOnUse"><stop stop-color="#F5BD47"></stop><stop offset="1" stop-color="#F8D07C"></stop></linearGradient><linearGradient id="coin_svg__e" x1="16.996" x2="16.996" y1="8.829" y2="24.848" gradientUnits="userSpaceOnUse"><stop stop-color="#F4B124"></stop><stop offset="1" stop-color="#E09B0B"></stop></linearGradient><linearGradient id="coin_svg__f" x1="16.996" x2="16.996" y1="8.829" y2="24.848" gradientUnits="userSpaceOnUse"><stop stop-color="#F4B124"></stop><stop offset="1" stop-color="#E09B0B"></stop></linearGradient><filter id="coin_svg__b" width="24.686" height="26.186" x="4.656" y="4.657" color-interpolation-filters="sRGB" filterUnits="userSpaceOnUse"><feFlood flood-opacity="0" result="BackgroundImageFix"></feFlood><feBlend in="SourceGraphic" in2="BackgroundImageFix" result="shape"></feBlend><feColorMatrix in="SourceAlpha" result="hardAlpha" values="0 0 0 0 0 0 0 0 0 0 0 0 0 0 0 0 0 0 127 0"></feColorMatrix><feOffset dy="2"></feOffset><feGaussianBlur stdDeviation="0.75"></feGaussianBlur><feComposite in2="hardAlpha" k2="-1" k3="1" operator="arithmetic"></feComposite><feColorMatrix values="0 0 0 0 0.906628 0 0 0 0 0.6904 0 0 0 0 0.233372 0 0 0 0.78 0"></feColorMatrix><feBlend in2="shape" result="effect1_innerShadow_257_162"></feBlend></filter><filter id="coin_svg__d" width="15.446" height="17.219" x="9.273" y="8.629" color-interpolation-filters="sRGB" filterUnits="userSpaceOnUse"><feFlood flood-opacity="0" result="BackgroundImageFix"></feFlood><feColorMatrix in="SourceAlpha" result="hardAlpha" values="0 0 0 0 0 0 0 0 0 0 0 0 0 0 0 0 0 0 127 0"></feColorMatrix><feOffset dy="0.4"></feOffset><feGaussianBlur stdDeviation="0.3"></feGaussianBlur><feComposite in2="hardAlpha" operator="out"></feComposite><feColorMatrix values="0 0 0 0 0.608333 0 0 0 0 0.411942 0 0 0 0 0 0 0 0 0.16 0"></feColorMatrix><feBlend in2="BackgroundImageFix" result="effect1_dropShadow_257_162"></feBlend><feBlend in="SourceGraphic" in2="effect1_dropShadow_257_162" result="shape"></feBlend></filter></defs></svg>