<svg width="155" height="53" viewBox="0 0 155 53" fill="none" xmlns="http://www.w3.org/2000/svg">
<g filter="url(#filter0_d_33_679)">
<path fill-rule="evenodd" clip-rule="evenodd" d="M130.639 0L126.754 2.22642L125.222 4.958L120.776 0.879343L117.021 1.75869L115.171 4.67736L110.856 3.53608L107.624 6.1554L106.447 4.92058L93.9864 2.69416L75.1742 3.40512L66.9917 4.39672L61.0883 5.25735L64.7873 8.11989L62.0411 10.4212L59.0894 7.97022H48.1047L45.4333 10.1966H37.3069L34.6541 7.97022H23.4265L20.6056 10.3276L17.7661 7.97022H6.98686L0 13.7889V29.3738L7.13631 35.3234H17.6166L18.943 34.2196C19.2793 33.9389 19.6342 33.6583 19.9705 33.3589C19.9705 33.3589 20.4188 32.9847 20.587 32.8351L23.5573 35.3047H34.6354L37.1761 33.2092H45.7322L48.2542 35.3047H73.6049L70.1115 47.0916L79.3962 43.9672L89.2039 31.8247L98.3765 45.5949L109.754 49L106.671 40.8988L104.747 35.0053L109.959 34.4628L111.323 35.604L121.373 34.7808L123.223 35.5292L149.209 30.9267L155 25.6693L146.967 22.4139L133.853 22.0771L139.756 11.9179L139.775 7.95151L136.001 3.9664L130.639 0Z" fill="white"/>
<path fill-rule="evenodd" clip-rule="evenodd" d="M146.687 24.0021L131.219 23.5718L138.205 11.5042L138.224 8.58557L134.992 5.18045L130.527 1.9063L127.931 3.40306L125.633 7.50042L120.327 2.61726L118.011 3.15984L115.844 6.58366V6.50882L111.229 5.274L107.699 8.13654L107.512 8.32364L105.662 6.37786L93.8556 4.2824L75.4731 4.80627L65.0675 6.32173L68.5422 9.53975H65.5532L62.0411 12.4771L58.5103 9.53975H48.6652L45.9937 11.7849H36.709L34.0563 9.55846H23.9683L20.587 12.4023L17.1869 9.55846H7.54731L1.58792 14.5352V28.6234L7.69676 33.731H17.0188L17.8968 33.0014C18.2331 32.7207 18.588 32.4214 18.9243 32.1407L19.0364 32.0472C19.5408 31.6356 20.0452 31.2053 20.5683 30.775L24.1178 33.731H34.0563L36.6156 31.6169H46.3113L48.8333 33.7123H64.0213V32.3278L65.684 33.7123H76.0335L72.6148 44.807L78.3126 42.2625L88.6622 29.8021L89.4841 29.4092L99.3293 43.7967L106.279 45.5741L105.158 41.3458L102.636 33.6188L109.828 32.8891L110.258 32.6459L111.865 33.9743L121.654 33.1698L123.428 33.8807L148.331 29.4653L151.768 26.0789L146.687 24.0021Z" fill="#161A1F"/>
<path fill-rule="evenodd" clip-rule="evenodd" d="M8.70556 12.7411L4.76377 16.0153V27.1287L8.85501 30.5338H15.8792C17.0748 29.5422 18.2891 28.5506 19.4848 27.5403V24.3036H14.7397L14.2353 26.1745H10.7605L9.99458 25.5571V17.7178L10.7232 17.1378H14.2353L14.7397 18.9901H19.4848V15.6411L16.0474 12.7411H8.70556Z" fill="white"/>
<path fill-rule="evenodd" clip-rule="evenodd" d="M21.6705 20.4868L24.6969 22.9939L30.787 24.0042L31.2727 24.4345V25.6319L30.6376 26.1745H26.9387L26.4156 24.3036H21.6705V27.5403L25.276 30.5338H32.9167L36.5596 27.5403V22.4513L33.5892 20.1313L27.4617 19.121L26.9013 18.6907V17.643L27.5738 17.1378H31.1046L31.609 18.9901H36.3541V15.6411L32.898 12.7411H25.1266L21.6705 15.6411V20.4868Z" fill="white"/>
<path fill-rule="evenodd" clip-rule="evenodd" d="M45.8816 27.1287L49.9729 30.5338H54.6619L56.3433 29.1493L56.8477 30.5338H60.8455V20.0191H53.2235V23.0687H55.6147V25.501L54.8301 26.1745H51.8784L51.1124 25.5571V17.7178L51.8597 17.1378H55.6147L56.1191 18.9901H60.8455V15.6411L57.3707 12.7411H49.8234L45.8816 16.0153V27.1287Z" fill="white"/>
<path fill-rule="evenodd" clip-rule="evenodd" d="M66.7115 12.7411L62.9939 15.8469V27.3719L66.8235 30.5525H74.0906C75.3797 29.5048 76.65 28.4196 77.9577 27.3719V15.8469L74.2401 12.7411H66.7115ZM68.2247 25.5758V17.6804L68.9159 17.1378H72.0357L72.7269 17.6804V25.5945L72.017 26.1745H68.9345L68.2247 25.5758Z" fill="white"/>
<path fill-rule="evenodd" clip-rule="evenodd" d="M43.9014 14.9655H38.6519V20.2415H43.9014V14.9655Z" fill="white"/>
<path fill-rule="evenodd" clip-rule="evenodd" d="M43.9014 23.1789H38.6519V28.4363H43.9014V23.1789Z" fill="white"/>
<path fill-rule="evenodd" clip-rule="evenodd" d="M106.129 25.9126L109.492 17.1753C109.492 17.1753 102.767 25.4635 102.561 25.8003C102.318 26.1932 102.094 26.5861 101.889 26.979C101.963 26.979 106.017 26.3055 106.129 25.9126ZM90.605 19.1585L98.7315 15.0237C98.7315 15.0237 98.7315 15.0237 98.7501 15.0237C98.7688 14.9863 99.1985 14.4624 99.3479 14.2379C98.9183 14.0882 96.882 13.5456 93.2018 12.6289C91.5017 16.8011 90.6424 18.9714 90.605 19.1585ZM126.249 26.3055C126.586 26.3429 144.949 26.8293 145.472 26.7358C145.697 26.6984 145.603 26.9977 145.472 27.0538C145.192 27.1287 123.092 30.459 122.793 30.2344C122.737 30.2531 122.307 29.879 122.121 29.7293C120.14 30.1596 113.714 30.6273 113.527 30.6273C112.836 30.6086 110.987 29.1306 110.856 28.9809C110.613 28.6816 110.501 28.3261 110.463 27.9706C110.445 27.8022 110.426 27.6338 110.426 27.4654C110.351 27.6712 109.38 29.5235 109.268 29.5235C108.857 29.5796 98.937 30.7396 98.5073 30.8144C98.7875 31.806 102.038 41.0485 102.075 41.1982C102.094 41.2169 102.094 41.2356 102.094 41.273C102.094 41.273 102.094 41.273 102.094 41.2917C102.094 41.3478 102.057 41.3853 102.001 41.4227C101.926 41.4788 101.833 41.4975 101.758 41.4414C101.664 41.3478 92.1556 27.1474 90.7918 24.79C90.7171 24.79 87.56 26.0061 86.8687 26.3055C86.8127 26.5113 76.7808 40.6182 76.6687 40.6182C76.6126 40.6182 76.5753 40.562 76.5566 40.5246C76.5005 40.4872 80.3489 31.1138 88.083 12.4044L72.5027 9.29859C75.7346 8.62505 77.3972 8.28828 77.528 8.30699C77.5654 8.30699 81.339 8.1386 88.8677 7.78312C100.917 9.26117 106.764 10.9076 106.447 12.7598C105.98 15.5288 96.5457 21.1978 95.5183 21.8152C95.6117 21.9275 96.8446 25.6132 96.9567 25.9874C97.3117 25.2952 100.469 20.6926 100.581 20.5991C100.712 20.5055 111.547 10.1031 111.79 9.95342C112.07 9.76632 112.201 9.48568 112.612 9.48568C112.892 9.48568 113.49 9.78503 114.443 10.365C114.573 10.4399 114.629 10.5708 114.611 10.7205L114.088 16.2959C112.817 20.6178 112.051 23.1249 111.808 23.7797L121 7.67087C121 7.65216 121.018 7.65216 121.018 7.63345C121.093 7.55861 121.205 7.55861 121.28 7.61474L123.484 9.59794C123.653 9.74761 123.746 9.99084 123.727 10.2153L123.615 11.4502C118.627 20.8797 116.049 25.7255 115.862 25.9687C115.806 26.0435 115.694 26.3055 115.844 26.2868C116.049 26.268 120.906 26.1745 121.131 26.1932C121.429 25.7255 124.755 19.4391 131.144 7.35281C131.144 7.35281 131.144 7.35281 131.144 7.3341C131.2 7.24055 131.312 7.22184 131.405 7.27797L134.039 8.9244C134.133 8.98053 134.189 9.07407 134.208 9.16762L134.562 10.8702C129.107 20.73 126.305 25.8003 126.118 26.0809C126.212 26.1558 126.212 26.2306 126.249 26.3055Z" fill="#FF5345"/>
</g>
<defs>
<filter id="filter0_d_33_679" x="0" y="0" width="155" height="53" filterUnits="userSpaceOnUse" color-interpolation-filters="sRGB">
<feFlood flood-opacity="0" result="BackgroundImageFix"/>
<feColorMatrix in="SourceAlpha" type="matrix" values="0 0 0 0 0 0 0 0 0 0 0 0 0 0 0 0 0 0 127 0" result="hardAlpha"/>
<feOffset dy="4"/>
<feComposite in2="hardAlpha" operator="out"/>
<feColorMatrix type="matrix" values="0 0 0 0 0 0 0 0 0 0 0 0 0 0 0 0 0 0 0.25 0"/>
<feBlend mode="normal" in2="BackgroundImageFix" result="effect1_dropShadow_33_679"/>
<feBlend mode="normal" in="SourceGraphic" in2="effect1_dropShadow_33_679" result="shape"/>
</filter>
</defs>
</svg>
