<?xml version="1.0" encoding="utf-8"?>
<!-- Generator: Adobe Illustrator 27.9.5, SVG Export Plug-In . SVG Version: 9.03 Build 54986)  -->
<svg version="1.1" id="Layer_1" xmlns="http://www.w3.org/2000/svg" xmlns:xlink="http://www.w3.org/1999/xlink" x="0px" y="0px"
	 viewBox="0 0 56 46" style="enable-background:new 0 0 56 46;" xml:space="preserve">
<style type="text/css">
	.st0{fill:#681AFF;}
	.st1{fill:#9870FC;}
	.st2{fill:#E4BDFB;}
	.st3{fill:#FCFCFC;}
	.st4{fill:#FFFFFF;}
</style>
<path class="st0" d="M3.9,26.4h48.2v1c0,4.9-4.1,8.8-9.1,8.8H13c-5,0-9.1-4-9.1-8.8L3.9,26.4L3.9,26.4z"/>
<path class="st1" d="M1.4,18.3h53.2V20c0,5.7-4.7,10.3-10.6,10.3H12C6.1,30.3,1.4,25.7,1.4,20V18.3z"/>
<path class="st2" d="M0,11.5h56v1.1c0,7.2-6,13-13.4,13H13.4C6,25.6,0,19.7,0,12.6V11.5z"/>
<path class="st1" d="M3.5,3L44,13l-0.2,0.8c-1.4,5.2-6.8,8.3-12.1,7l-21.1-5.2C5.2,14.3,1.9,9,3.3,3.8L3.5,3z"/>
<path class="st0" d="M39,46H17v-1c0-5,4-9,9-9h4c5,0,9,4,9,9V46L39,46z"/>
<path class="st1" d="M45.5,15.6l-21.1,5.2c-5.3,1.3-10.8-1.8-12.1-7L12.1,13L52.6,3l0.2,0.8C54.1,9,50.9,14.3,45.5,15.6z"/>
<path class="st1" d="M47.4,33.9V12.1L28,1.2L8.6,12.1v21.8L28,44.8L47.4,33.9z"/>
<path class="st2" d="M28,11.1L17.4,17v11.9l10.6,6l10.6-6V17L28,11.1z M28,34.9v-6.7l4.6-2.6l6,3.4L28,34.9z"/>
<path class="st2" d="M9.9,12.8L28,23l18.3-10.3L28,2.4L9.9,12.8z"/>
<path class="st3" d="M17.4,17L28,23l10.6-6L28,11.1L17.4,17z"/>
<path class="st0" d="M28,46v-4.4l16.5-9.3l3.9,2.2L28,46z"/>
<path class="st0" d="M28,28.1v6.7l10.6-6l-6-3.4L28,28.1z"/>
<path class="st3" d="M33.5,26.1v-6.2L28,16.8l-5.5,3.1v6.2l5.5,3.1L33.5,26.1z"/>
<polyline class="st2" points="28,46 28,41.6 11.5,32.3 7.5,34.5 28,46 "/>
<polygon class="st2" points="44.5,13.7 44.5,32.3 48.5,34.5 48.5,11.5 "/>
<polyline class="st3" points="11.5,32.3 11.5,13.7 28,4.4 44.5,13.7 44.5,13.7 48.5,11.5 48.5,11.5 28,0 7.5,11.5 7.5,34.5 
	11.5,32.3 "/>
<path class="st4" d="M32.6,17.9c3.3,0,6,2.6,6,5.8c0-3.2,2.7-5.8,6-5.8c-3.3,0-6-2.6-6-5.8C38.6,15.3,35.9,17.9,32.6,17.9z"/>
</svg>
