<?xml version="1.0" encoding="utf-8"?>
<!-- Generator: Adobe Illustrator 27.9.5, SVG Export Plug-In . SVG Version: 9.03 Build 54986)  -->
<svg version="1.1" id="Layer_1" xmlns="http://www.w3.org/2000/svg" xmlns:xlink="http://www.w3.org/1999/xlink" x="0px" y="0px"
	 viewBox="0 0 56 45" style="enable-background:new 0 0 56 45;" xml:space="preserve">
<style type="text/css">
	.st0{clip-path:url(#SVGID_00000045600689280262421830000012798464760584278676_);}
	.st1{fill:#0042AD;}
	.st2{fill:#0559F3;}
	.st3{fill:#447BF8;}
	.st4{fill:#A9C6FF;}
	.st5{fill:#FCFCFC;}
	.st6{fill:#FFFFFF;}
</style>
<g>
	<defs>
		<rect id="SVGID_1_" width="56" height="44.3"/>
	</defs>
	<clipPath id="SVGID_00000116926998906461246450000001662548060499462332_">
		<use xlink:href="#SVGID_1_"  style="overflow:visible;"/>
	</clipPath>
	<g style="clip-path:url(#SVGID_00000116926998906461246450000001662548060499462332_);">
		<path class="st1" d="M3.9,25.4h48.2v0.9c0,4.7-4.1,8.5-9.1,8.5H13c-5,0-9.1-3.8-9.1-8.5L3.9,25.4L3.9,25.4z"/>
		<path class="st1" d="M13.6,19.8L48,0l0.4,0.7c2.2,3.3,1.1,7.7-2.5,9.8L24.5,22.8c-3.6,2-8.2,1-10.4-2.3L13.6,19.8z"/>
		<path class="st1" d="M31.5,22.8L10,10.4C6.5,8.4,5.4,4,7.5,0.7L8,0l34.4,19.8L42,20.4C39.8,23.8,35.1,24.8,31.5,22.8z"/>
		<path class="st2" d="M1.4,17.6h53.2v1.7c0,5.5-4.7,9.9-10.6,9.9H12c-5.9,0-10.6-4.4-10.6-9.9V17.6z"/>
		<path class="st3" d="M0,11.1h56v1c0,6.9-6,12.5-13.4,12.5H13.4C6,24.7,0,19,0,12.1V11.1z"/>
		<path class="st2" d="M3.5,4.6L44,14.2l-0.2,0.7c-1.4,5-6.8,8-12.1,6.8l-21.1-5C5.2,15.4,2,10.3,3.3,5.3L3.5,4.6L3.5,4.6z"/>
		<path class="st2" d="M45.5,16.7l-21.1,5c-5.3,1.3-10.8-1.8-12.1-6.8l-0.2-0.7l40.4-9.6l0.2,0.7C54.1,10.3,50.9,15.4,45.5,16.7z"/>
		<path class="st2" d="M46.6,32.2V12.1L28,2.1L9.4,12.1v20.1L28,42.3L46.6,32.2z"/>
		<g>
			<polygon class="st3" points="28,33.6 28,33.6 28.4,33.4 			"/>
			<polygon class="st3" points="28,10.7 17.4,16.4 17.4,27.9 28,33.6 28,27.1 32.6,24.7 38.6,27.9 38.6,27.9 38.6,16.4 			"/>
		</g>
		<path class="st3" d="M10,12.4l18,9.7L46.8,12L28,1.7L10,12.4z"/>
		<path class="st4" d="M17.4,16.4L28,22.2l10.6-5.7L28,10.7L17.4,16.4z"/>
		<path class="st1" d="M28,44.3v-4.3l16.5-9l3.9,2.1L28,44.3z"/>
		<path class="st1" d="M28,27.1v6.5l10.6-5.7l-6-3.2L28,27.1z"/>
		<path class="st5" d="M33.5,25.2v-6l-5.5-3l-5.5,3v6l5.5,3L33.5,25.2z"/>
		<path class="st6" d="M32.6,17.2c3.3,0,6,2.5,6,5.6c0-3.1,2.7-5.6,6-5.6c-3.3,0-6-2.5-6-5.6C38.6,14.7,35.9,17.2,32.6,17.2z"/>
		<polygon class="st4" points="11.5,13.2 28,4.3 44.5,13.2 44.5,13.2 48.5,11.1 28,0 7.5,11.1 7.5,33.2 11.5,31.1 		"/>
		<g>
			<polygon class="st3" points="11.5,31.1 7.5,33.2 28,44.3 28,40.1 			"/>
			<polygon class="st3" points="44.5,13.2 44.5,31.1 48.5,33.2 48.5,11.1 			"/>
		</g>
	</g>
</g>
</svg>
