<?xml version="1.0" encoding="utf-8"?>
<!-- Generator: Adobe Illustrator 27.9.5, SVG Export Plug-In . SVG Version: 9.03 Build 54986)  -->
<svg version="1.1" id="Layer_1" xmlns="http://www.w3.org/2000/svg" xmlns:xlink="http://www.w3.org/1999/xlink" x="0px" y="0px"
	 viewBox="0 0 56 45" style="enable-background:new 0 0 56 45;" xml:space="preserve">
<style type="text/css">
	.st0{fill:#FF8908;}
	.st1{fill:#FFB92C;}
	.st2{fill:#FFD629;}
	.st3{fill:#FFF5CC;}
</style>
<path class="st0" d="M3.9,25.4h48.2v0.9c0,4.7-4.1,8.5-9.1,8.5H13c-5,0-9.1-3.8-9.1-8.5L3.9,25.4L3.9,25.4z"/>
<path class="st1" d="M1.4,17.6h53.2v1.7c0,5.5-4.7,9.9-10.6,9.9H12c-5.9,0-10.6-4.4-10.6-9.9V17.6z"/>
<path class="st2" d="M0,11.1h56v1c0,6.9-6,12.5-13.4,12.5H13.4C6,24.7,0,19,0,12.1V11.1z"/>
<path class="st1" d="M46.8,32.3V12L28,1.8L9.2,12v20.3L28,42.5L46.8,32.3z"/>
<path class="st2" d="M10,12.4l18,9.8l18.2-9.8L28,2.5L10,12.4z"/>
<path class="st2" d="M38.6,27.9V16.4L28,10.7l-10.6,5.7v11.5L28,33.6L38.6,27.9z"/>
<path class="st3" d="M17.4,16.4L28,22.2l10.6-5.7L28,10.7L17.4,16.4z"/>
<path class="st0" d="M28,44.3v-4.3l16.5-9l3.9,2.1L28,44.3z"/>
<polygon class="st3" points="11.5,31.1 11.5,13.2 28,4.3 44.5,13.2 44.5,13.2 48.5,11.1 28,0 7.5,11.1 7.5,33.2 7.5,33.2 "/>
<polygon class="st2" points="11.5,31.1 7.5,33.2 28,44.3 28,40.1 "/>
<polygon class="st2" points="44.5,13.2 44.5,31.1 48.5,33.2 48.5,11.1 "/>
</svg>
