<?xml version="1.0" encoding="utf-8"?>
<!-- Generator: Adobe Illustrator 27.9.5, SVG Export Plug-In . SVG Version: 9.03 Build 54986)  -->
<svg version="1.1" id="Layer_1" xmlns="http://www.w3.org/2000/svg" xmlns:xlink="http://www.w3.org/1999/xlink" x="0px" y="0px"
	 viewBox="0 0 56 46" style="enable-background:new 0 0 56 46;" xml:space="preserve">
<style type="text/css">
	.st0{fill:#7A7FA0;}
	.st1{fill:#A7ABD1;}
	.st2{fill:#CDD4F9;}
	.st3{fill:#FCFCFC;}
</style>
<path class="st0" d="M3.9,26.4h48.2v1c0,4.9-4.1,8.8-9.1,8.8H13c-5,0-9.1-4-9.1-8.8L3.9,26.4L3.9,26.4z"/>
<path class="st1" d="M1.4,18.3h53.2V20c0,5.7-4.7,10.3-10.6,10.3H12C6.1,30.3,1.4,25.7,1.4,20V18.3z"/>
<path class="st2" d="M0,11.5h56v1.1c0,7.2-6,13-13.4,13H13.4C6,25.6,0,19.7,0,12.6V11.5z"/>
<path class="st1" d="M3.5,3L44,13l-0.2,0.8c-1.4,5.2-6.8,8.3-12.1,7l-21.1-5.2C5.2,14.3,1.9,9,3.3,3.8L3.5,3z"/>
<path class="st1" d="M45.5,15.6l-21.1,5.2c-5.3,1.3-10.8-1.8-12.1-7L12.1,13L52.6,3l0.2,0.8C54.1,9,50.9,14.3,45.5,15.6z"/>
<path class="st1" d="M45.5,32.8V13.2L28,3.3l-17.5,9.8v19.6L28,42.7L45.5,32.8z"/>
<polygon class="st2" points="28,4.4 11.5,13.7 28,23 44.5,13.7 "/>
<path class="st2" d="M38.6,28.9V17L28,11.1L17.4,17v11.9L28,34.9L38.6,28.9z"/>
<path class="st3" d="M17.4,17L28,23L38.6,17L28,11.1L17.4,17z"/>
<path class="st0" d="M28,46v-4.4l16.5-9.3l3.9,2.2L28,46z"/>
<polygon class="st2" points="11.5,32.3 7.5,34.5 28,46 28,41.6 "/>
<polygon class="st2" points="44.5,13.7 44.5,32.3 48.5,34.5 48.5,11.5 "/>
<polygon class="st3" points="11.5,13.7 28,4.4 44.5,13.7 48.5,11.5 28,0 7.5,11.5 7.5,34.5 11.5,32.3 "/>
</svg>
