<?xml version="1.0" encoding="utf-8"?>
<!-- Generator: Adobe Illustrator 27.9.5, SVG Export Plug-In . SVG Version: 9.03 Build 54986)  -->
<svg version="1.1" id="Layer_1" xmlns="http://www.w3.org/2000/svg" xmlns:xlink="http://www.w3.org/1999/xlink" x="0px" y="0px"
	 viewBox="0 0 56 46" style="enable-background:new 0 0 56 46;" xml:space="preserve">
<style type="text/css">
	.st0{fill:#7A7FA0;}
	.st1{fill:#A7ABD1;}
	.st2{fill:#CDD4F9;}
	.st3{fill:#FCFCFC;}
</style>
<path class="st0" d="M2.5,24.5h50.9v1.6c0,5.4-4.5,9.8-10,9.8H12.6c-5.5,0-10-4.4-10-9.8V24.5z"/>
<path class="st1" d="M0,11.5h56c0,10.9-9.1,19.7-20.2,19.7H20.2C9.1,31.2,0,22.4,0,11.5z"/>
<path class="st1" d="M47.2,33.8V12.2L28,1.4L8.8,12.2v21.6L28,44.6L47.2,33.8z"/>
<path class="st2" d="M9.8,12.8L28,23l17.9-10.1L28,2.8L9.8,12.8z"/>
<path class="st2" d="M48.5,34.5v-23l-3.9,2.2v18.6L28,41.6l-16.5-9.3l-3.9,2.2L28,46L48.5,34.5z"/>
<path class="st2" d="M38.6,28.9V17L28,11.1L17.4,17v11.9l10.6,6L38.6,28.9z"/>
<path class="st3" d="M17.4,17L28,23l10.6-6L28,11.1L17.4,17z"/>
<polygon class="st3" points="11.5,13.7 28,4.4 44.5,13.7 44.5,13.7 48.5,11.5 28,0 7.5,11.5 7.5,34.5 11.5,32.3 "/>
</svg>
