<svg width="24" height="19" viewBox="0 0 24 19" fill="none" xmlns="http://www.w3.org/2000/svg">
<g clip-path="url(#clip0_327_1637)">
<path d="M1.08999 10.1052H22.91V10.762C22.91 12.9857 20.98 14.7965 18.61 14.7965H5.38999C3.01999 14.7965 1.08999 12.9857 1.08999 10.762V10.1052Z" fill="#31406C"/>
<path d="M0 4.74762H24C24 9.23256 20.12 12.8731 15.34 12.8731H8.65C3.88 12.8731 0 9.23256 0 4.74762Z" fill="#435893"/>
<path d="M20.77 14.243V4.74765L12 0L3.23 4.74765V14.243L12 19L20.77 14.243Z" fill="#20305B"/>
<path d="M3.23 4.74765L12 9.49531L20.77 4.74765L12 0L3.23 4.74765Z" fill="#4F65A4"/>
<path d="M12 1.82963L19.08 5.66716V13.3328L12 17.1704L4.92 13.3328V5.66716L12 1.82963ZM12 0L3.23 4.74765V14.243L12 18.9906L20.77 14.243V4.74765L12 0Z" fill="#8297D2"/>
<path d="M20.77 14.2429V4.74762L19.08 5.66713V13.3328L12 17.1703L4.92 13.3328L3.23 14.2429L12 19L20.77 14.2429Z" fill="#2C3D6C"/>
<path d="M16.53 11.9536V7.03702L12 4.58813L7.47001 7.03702V11.9536L12 14.4118L16.53 11.9536Z" fill="#6376AC"/>
<path d="M7.47001 7.03702L12 9.4953L16.53 7.03702L12 4.58813L7.47001 7.03702Z" fill="#8297D2"/>
</g>
<defs>
<clipPath id="clip0_327_1637">
<rect width="24" height="19" fill="white"/>
</clipPath>
</defs>
</svg>
